<?xml version="1.0" encoding="UTF-8"?>
<!DOCTYPE svg PUBLIC "-//W3C//DTD SVG 1.1//EN" "http://www.w3.org/Graphics/SVG/1.1/DTD/svg11.dtd">
<svg xmlns="http://www.w3.org/2000/svg" version="1.1" width="187px" height="232px" style="shape-rendering:geometricPrecision; text-rendering:geometricPrecision; image-rendering:optimizeQuality; fill-rule:evenodd; clip-rule:evenodd" xmlns:xlink="http://www.w3.org/1999/xlink">
<g><path style="opacity:1" fill="#1a1a1c" d="M -0.5,-0.5 C 19.8333,-0.5 40.1667,-0.5 60.5,-0.5C 66.5098,5.83515 72.5098,12.1685 78.5,18.5C 79.2978,20.0777 79.7978,21.7444 80,23.5C 82.0445,22.228 83.8778,22.5614 85.5,24.5C 86.3081,24.1924 86.9747,23.6924 87.5,23C 86.1667,21.6667 86.1667,20.3333 87.5,19C 90.376,18.5621 93.0427,17.5621 95.5,16C 98.8168,15.5017 102.15,15.335 105.5,15.5C 105.649,16.552 105.483,17.552 105,18.5C 104.282,17.5494 103.449,17.3828 102.5,18C 100.924,19.73 99.5903,21.5633 98.5,23.5C 95.6111,27.0115 91.9445,29.0115 87.5,29.5C 86.8333,30.1667 86.1667,30.8333 85.5,31.5C 80.8662,33.317 77.1995,36.317 74.5,40.5C 69.8333,44.8333 65.1667,49.1667 60.5,53.5C 57.1114,55.2633 53.7781,56.93 50.5,58.5C 50.5,57.1667 50.5,55.8333 50.5,54.5C 51.8333,54.5 53.1667,54.5 54.5,54.5C 54.5,52.8333 54.5,51.1667 54.5,49.5C 55.9778,49.762 57.3112,49.4287 58.5,48.5C 57.8333,48.1667 57.1667,47.8333 56.5,47.5C 52.8016,48.3342 49.9683,50.3342 48,53.5C 48.3496,57.601 48.1829,61.601 47.5,65.5C 46.5,65.5 45.5,65.5 44.5,65.5C 44.5,66.8333 44.5,68.1667 44.5,69.5C 43.8333,70.5 43.1667,71.5 42.5,72.5C 41.0209,73.759 39.3542,74.759 37.5,75.5C 38.423,72.7404 40.2563,70.7404 43,69.5C 43.49,68.2068 43.6567,66.8734 43.5,65.5C 41.8333,65.5 40.1667,65.5 38.5,65.5C 39.2096,68.8595 37.8762,70.6929 34.5,71C 33.8534,72.6095 33.02,74.1095 32,75.5C 31.7811,74.062 31.2811,72.7287 30.5,71.5C 21.0827,62.1902 11.5827,52.8568 2,43.5C 1.31232,42.6683 1.47899,42.0016 2.5,41.5C 6.44496,42.4272 6.44496,42.0939 2.5,40.5C 1.41635,40.685 0.416349,41.0183 -0.5,41.5C -0.5,27.5 -0.5,13.5 -0.5,-0.5 Z"/></g>
<g><path style="opacity:1" fill="#1a1a1d" d="M 60.5,-0.5 C 102.5,-0.5 144.5,-0.5 186.5,-0.5C 186.5,41.8333 186.5,84.1667 186.5,126.5C 185.193,125.847 183.86,125.18 182.5,124.5C 179.744,125.633 177.911,124.633 177,121.5C 176.311,122.357 175.478,123.023 174.5,123.5C 174.899,120.47 174.399,117.47 173,114.5C 171.237,116.719 169.237,118.719 167,120.5C 168.724,113.766 169.891,106.766 170.5,99.5C 172.229,101.851 172.896,104.518 172.5,107.5C 173.5,107.5 174.5,107.5 175.5,107.5C 174.977,101.938 173.977,96.438 172.5,91C 173.138,88.1879 174.138,85.5213 175.5,83C 175.167,81.8333 174.833,80.6667 174.5,79.5C 170.933,82.0788 166.933,83.5788 162.5,84C 165.267,84.6777 167.434,86.1777 169,88.5C 169.774,90.403 169.44,92.0696 168,93.5C 165.817,90.4692 162.984,88.4692 159.5,87.5C 158.461,85.4689 156.795,84.1355 154.5,83.5C 153.5,82.1667 152.5,80.8333 151.5,79.5C 150.5,76.1667 149.5,72.8333 148.5,69.5C 155.875,68.9066 158.542,72.2399 156.5,79.5C 159.572,79.8174 162.572,79.4841 165.5,78.5C 158.364,74.5836 157.697,69.7502 163.5,64C 162.207,63.51 160.873,63.3433 159.5,63.5C 159.5,64.5 159.5,65.5 159.5,66.5C 157.5,66.5 155.5,66.5 153.5,66.5C 153.5,65.5 153.5,64.5 153.5,63.5C 150.167,63.5 146.833,63.5 143.5,63.5C 143.66,65.1992 143.494,66.8659 143,68.5C 141.114,65.758 138.614,64.0913 135.5,63.5C 135.167,63.5 134.833,63.5 134.5,63.5C 133.167,60.1667 130.833,57.8333 127.5,56.5C 124.81,54.8065 122.81,52.4732 121.5,49.5C 119.681,43.2682 115.681,39.2682 109.5,37.5C 108.833,37.5 108.5,37.1667 108.5,36.5C 105.628,34.1293 103.794,31.1293 103,27.5C 101.333,26.2668 99.8333,24.9335 98.5,23.5C 99.5903,21.5633 100.924,19.73 102.5,18C 103.449,17.3828 104.282,17.5494 105,18.5C 105.483,17.552 105.649,16.552 105.5,15.5C 102.15,15.335 98.8168,15.5017 95.5,16C 93.0427,17.5621 90.376,18.5621 87.5,19C 86.1667,20.3333 86.1667,21.6667 87.5,23C 86.9747,23.6924 86.3081,24.1924 85.5,24.5C 83.8778,22.5614 82.0445,22.228 80,23.5C 79.7978,21.7444 79.2978,20.0777 78.5,18.5C 72.5098,12.1685 66.5098,5.83515 60.5,-0.5 Z"/></g>
<g><path style="opacity:1" fill="#333221" d="M 98.5,23.5 C 99.8333,24.9335 101.333,26.2668 103,27.5C 103.794,31.1293 105.628,34.1293 108.5,36.5C 108.167,36.5 107.833,36.5 107.5,36.5C 106.5,35.8333 105.5,35.1667 104.5,34.5C 102.388,32.7945 100.055,31.4611 97.5,30.5C 94.3752,29.5206 91.0419,29.1872 87.5,29.5C 91.9445,29.0115 95.6111,27.0115 98.5,23.5 Z"/></g>
<g><path style="opacity:1" fill="#64653a" d="M 87.5,29.5 C 91.0419,29.1872 94.3752,29.5206 97.5,30.5C 93.4659,30.5045 89.4659,30.8379 85.5,31.5C 86.1667,30.8333 86.8333,30.1667 87.5,29.5 Z"/></g>
<g><path style="opacity:1" fill="#e0da7a" d="M 97.5,30.5 C 100.055,31.4611 102.388,32.7945 104.5,34.5C 98.989,34.4096 93.6557,34.0762 88.5,33.5C 85.593,35.0665 82.9263,36.8998 80.5,39C 78.5643,39.813 76.5643,40.313 74.5,40.5C 77.1995,36.317 80.8662,33.317 85.5,31.5C 89.4659,30.8379 93.4659,30.5045 97.5,30.5 Z"/></g>
<g><path style="opacity:1" fill="#d3cb70" d="M 107.5,36.5 C 107.833,36.5 108.167,36.5 108.5,36.5C 108.5,37.1667 108.833,37.5 109.5,37.5C 112.547,40.5448 115.213,43.8781 117.5,47.5C 113.511,47.1644 111.178,44.9977 110.5,41C 109.552,40.5172 108.552,40.3505 107.5,40.5C 107.5,39.1667 107.5,37.8333 107.5,36.5 Z"/></g>
<g><path style="opacity:1" fill="#2f2c12" d="M 109.5,37.5 C 115.681,39.2682 119.681,43.2682 121.5,49.5C 120.395,48.3995 119.062,47.7329 117.5,47.5C 115.213,43.8781 112.547,40.5448 109.5,37.5 Z"/></g>
<g><path style="opacity:1" fill="#1a1b1d" d="M 37.5,75.5 C 37.5,76.1667 37.1667,76.5 36.5,76.5C 35.5,76.5 34.5,76.5 33.5,76.5C 33.719,77.675 33.3857,78.675 32.5,79.5C 26.8157,84.3507 21.649,89.684 17,95.5C 16.3333,100.833 16.3333,106.167 17,111.5C 17.2784,112.416 17.7784,113.082 18.5,113.5C 19.1667,113.833 19.8333,114.167 20.5,114.5C 21.1667,115.833 22.1667,116.833 23.5,117.5C 25.7631,121.103 28.4297,124.436 31.5,127.5C 34.5,130.833 37.5,134.167 40.5,137.5C 41.0476,139.394 42.0476,141.06 43.5,142.5C 42.8333,142.833 42.1667,143.167 41.5,143.5C 38.2197,141.686 35.553,139.186 33.5,136C 30.4686,135.505 27.4686,135.671 24.5,136.5C 24.4208,137.93 24.7542,139.264 25.5,140.5C 29.9796,141.37 34.313,142.703 38.5,144.5C 36.7962,146.849 34.4629,147.849 31.5,147.5C 31.5,148.833 31.5,150.167 31.5,151.5C 35.8441,151.339 39.5107,152.839 42.5,156C 44.1341,156.494 45.8008,156.66 47.5,156.5C 47.5,154.833 47.5,153.167 47.5,151.5C 39.5953,151.709 38.5953,149.209 44.5,144C 45.448,143.517 46.448,143.351 47.5,143.5C 49.3054,147.487 52.3054,148.987 56.5,148C 57.056,147.617 57.3893,147.117 57.5,146.5C 59.1321,143.867 61.1321,141.533 63.5,139.5C 69.8599,137.807 73.8599,133.807 75.5,127.5C 76.5735,126.749 76.7401,125.749 76,124.5C 74.2962,122.627 72.4628,120.96 70.5,119.5C 66.1621,116.244 62.6621,112.244 60,107.5C 59.5045,105.527 59.3379,103.527 59.5,101.5C 60.8333,100.5 62.1667,99.5 63.5,98.5C 65.5049,97.9612 67.5049,97.2945 69.5,96.5C 71.6051,92.6076 73.9384,88.9409 76.5,85.5C 78.8568,85.6633 81.1902,85.4966 83.5,85C 84.5248,82.9285 85.3581,80.7619 86,78.5C 88.1667,77 90,75.1667 91.5,73C 92.7932,72.51 94.1266,72.3433 95.5,72.5C 97.0618,72.7329 98.3951,73.3995 99.5,74.5C 103.5,78.8333 107.5,83.1667 111.5,87.5C 113.843,91.0221 116.01,94.6887 118,98.5C 120.573,99.8065 122.906,101.473 125,103.5C 125.045,106.22 124.545,108.886 123.5,111.5C 121.167,113.5 118.833,115.5 116.5,117.5C 115.07,117.421 113.736,117.754 112.5,118.5C 110.776,121.224 108.443,123.224 105.5,124.5C 103.87,122.974 103.037,120.974 103,118.5C 100.33,119.224 98.8301,120.891 98.5,123.5C 97.5,123.5 96.5,123.5 95.5,123.5C 95.5,124.833 95.5,126.167 95.5,127.5C 92.4884,128.255 89.8217,129.588 87.5,131.5C 87.3601,133.124 88.0267,134.29 89.5,135C 88.6753,136.688 87.6753,136.855 86.5,135.5C 84.3143,139.398 82.1476,139.398 80,135.5C 79.2562,138.89 78.4229,142.223 77.5,145.5C 80.3735,146.063 83.0402,147.063 85.5,148.5C 84.5,149.833 83.5,151.167 82.5,152.5C 80.8388,153.797 79.1722,155.13 77.5,156.5C 76.448,156.351 75.448,156.517 74.5,157C 72.658,159.543 70.4913,161.71 68,163.5C 67.8195,165.488 67.9862,167.488 68.5,169.5C 71.6238,169.943 73.9571,171.61 75.5,174.5C 76.6888,175.429 78.0222,175.762 79.5,175.5C 79.5,175.833 79.5,176.167 79.5,176.5C 79.5,177.5 79.5,178.5 79.5,179.5C 80.2613,180.391 81.2613,181.058 82.5,181.5C 83.4287,182.689 83.762,184.022 83.5,185.5C 82.0695,185.421 80.7362,185.754 79.5,186.5C 76.9087,184.62 74.4087,182.62 72,180.5C 67.4341,182.052 64.7674,185.052 64,189.5C 66.2943,188.148 68.7943,187.481 71.5,187.5C 77.0616,189.189 82.7283,189.689 88.5,189C 90.3091,186.762 92.6424,185.595 95.5,185.5C 95.5,186.833 95.5,188.167 95.5,189.5C 91.2559,190.643 86.9225,191.31 82.5,191.5C 82.5,194.167 82.5,196.833 82.5,199.5C 83.552,199.351 84.552,199.517 85.5,200C 84.6198,201.356 84.2865,202.856 84.5,204.5C 86.4147,204.216 88.0813,204.549 89.5,205.5C 91.4193,203.478 93.5859,203.144 96,204.5C 99.3529,200.174 100.52,200.507 99.5,205.5C 98.5,214.833 97.5,214.833 96.5,205.5C 95.5,205.5 94.5,205.5 93.5,205.5C 94.5828,209.085 95.2494,212.751 95.5,216.5C 96.9778,216.762 98.3112,216.429 99.5,215.5C 100.833,208.833 102.167,208.833 103.5,215.5C 104.689,216.429 106.022,216.762 107.5,216.5C 107.751,212.751 108.417,209.085 109.5,205.5C 112.023,202.761 112.69,203.094 111.5,206.5C 109.08,215.744 112.08,218.411 120.5,214.5C 119.829,215.847 119.829,217.014 120.5,218C 119.451,218.492 118.451,218.326 117.5,217.5C 116.304,217.846 116.304,218.346 117.5,219C 115.5,219.667 113.5,220.333 111.5,221C 111.833,221.333 112.167,221.667 112.5,222C 110.963,223.11 110.297,224.61 110.5,226.5C 109.5,226.5 108.5,226.5 107.5,226.5C 107.5,227.833 107.5,229.167 107.5,230.5C 104.728,230.405 102.728,229.071 101.5,226.5C 101.167,226.833 100.833,227.167 100.5,227.5C 101.524,228.852 102.524,230.185 103.5,231.5C 68.8333,231.5 34.1667,231.5 -0.5,231.5C -0.5,168.167 -0.5,104.833 -0.5,41.5C 0.416349,41.0183 1.41635,40.685 2.5,40.5C 6.44496,42.0939 6.44496,42.4272 2.5,41.5C 1.47899,42.0016 1.31232,42.6683 2,43.5C 11.5827,52.8568 21.0827,62.1902 30.5,71.5C 31.2811,72.7287 31.7811,74.062 32,75.5C 33.02,74.1095 33.8534,72.6095 34.5,71C 37.8762,70.6929 39.2096,68.8595 38.5,65.5C 40.1667,65.5 41.8333,65.5 43.5,65.5C 43.6567,66.8734 43.49,68.2068 43,69.5C 40.2563,70.7404 38.423,72.7404 37.5,75.5 Z"/></g>
<g><path style="opacity:1" fill="#ebd758" d="M 104.5,34.5 C 105.5,35.1667 106.5,35.8333 107.5,36.5C 107.5,37.8333 107.5,39.1667 107.5,40.5C 108.552,40.3505 109.552,40.5172 110.5,41C 111.178,44.9977 113.511,47.1644 117.5,47.5C 119.062,47.7329 120.395,48.3995 121.5,49.5C 122.81,52.4732 124.81,54.8065 127.5,56.5C 129.5,58.8333 131.5,61.1667 133.5,63.5C 127.454,59.2954 121.12,55.2954 114.5,51.5C 114.185,49.517 113.185,48.1837 111.5,47.5C 109.718,48.7196 107.718,49.3862 105.5,49.5C 105.43,46.4331 104.096,44.0998 101.5,42.5C 103.053,41.561 104.387,40.3943 105.5,39C 103.427,35.4196 100.427,34.5862 96.5,36.5C 95.5713,37.6888 95.238,39.0222 95.5,40.5C 92.8858,40.2771 91.2191,41.4438 90.5,44C 86.9137,45.1076 83.247,45.6076 79.5,45.5C 78.3826,49.7953 75.8826,53.1286 72,55.5C 71.5172,56.448 71.3505,57.448 71.5,58.5C 74.1667,57.5 76.8333,56.5 79.5,55.5C 75.3845,58.2795 72.3845,61.9462 70.5,66.5C 67.1667,69.8333 63.8333,73.1667 60.5,76.5C 61.7834,73.9896 62.7834,71.3229 63.5,68.5C 67.7889,67.7505 69.7889,65.0839 69.5,60.5C 67.5,60.5 65.5,60.5 63.5,60.5C 63.719,59.325 63.3857,58.325 62.5,57.5C 59.501,60.1693 56.1677,62.1693 52.5,63.5C 52.5,64.8333 52.5,66.1667 52.5,67.5C 50.8333,67.5 49.1667,67.5 47.5,67.5C 51.8614,62.8073 56.1948,58.1406 60.5,53.5C 65.1667,49.1667 69.8333,44.8333 74.5,40.5C 76.5643,40.313 78.5643,39.813 80.5,39C 82.9263,36.8998 85.593,35.0665 88.5,33.5C 93.6557,34.0762 98.989,34.4096 104.5,34.5 Z"/></g>
<g><path style="opacity:1" fill="#eee053" d="M 111.5,47.5 C 110.551,49.7373 109.884,52.0706 109.5,54.5C 108.5,54.5 107.5,54.5 106.5,54.5C 104.754,51.8085 102.421,49.8085 99.5,48.5C 97.5,48.1667 95.5,47.8333 93.5,47.5C 88.879,48.4047 84.2123,49.4047 79.5,50.5C 79.5,52.1667 79.5,53.8333 79.5,55.5C 76.8333,56.5 74.1667,57.5 71.5,58.5C 71.3505,57.448 71.5172,56.448 72,55.5C 75.8826,53.1286 78.3826,49.7953 79.5,45.5C 83.247,45.6076 86.9137,45.1076 90.5,44C 91.2191,41.4438 92.8858,40.2771 95.5,40.5C 95.238,39.0222 95.5713,37.6888 96.5,36.5C 100.427,34.5862 103.427,35.4196 105.5,39C 104.387,40.3943 103.053,41.561 101.5,42.5C 104.096,44.0998 105.43,46.4331 105.5,49.5C 107.718,49.3862 109.718,48.7196 111.5,47.5 Z"/></g>
<g><path style="opacity:1" fill="#211d15" d="M 60.5,53.5 C 56.1948,58.1406 51.8614,62.8073 47.5,67.5C 46.7095,68.4013 45.7095,69.0679 44.5,69.5C 44.5,68.1667 44.5,66.8333 44.5,65.5C 45.5,65.5 46.5,65.5 47.5,65.5C 48.1829,61.601 48.3496,57.601 48,53.5C 49.9683,50.3342 52.8016,48.3342 56.5,47.5C 57.1667,47.8333 57.8333,48.1667 58.5,48.5C 57.3112,49.4287 55.9778,49.762 54.5,49.5C 54.5,51.1667 54.5,52.8333 54.5,54.5C 53.1667,54.5 51.8333,54.5 50.5,54.5C 50.5,55.8333 50.5,57.1667 50.5,58.5C 53.7781,56.93 57.1114,55.2633 60.5,53.5 Z"/></g>
<g><path style="opacity:1" fill="#fad678" d="M 106.5,54.5 C 108.036,58.0399 110.703,60.0399 114.5,60.5C 114.491,62.3084 114.991,63.9751 116,65.5C 119.659,68.7889 123.326,72.1222 127,75.5C 127.464,76.0944 127.631,76.7611 127.5,77.5C 126.325,77.719 125.325,77.3857 124.5,76.5C 118.452,69.7853 112.119,63.4519 105.5,57.5C 96.5,48.0393 87.8334,48.3727 79.5,58.5C 76.4728,60.8605 73.8062,63.5271 71.5,66.5C 71.1667,66.5 70.8333,66.5 70.5,66.5C 72.3845,61.9462 75.3845,58.2795 79.5,55.5C 79.5,53.8333 79.5,52.1667 79.5,50.5C 84.2123,49.4047 88.879,48.4047 93.5,47.5C 95.5,47.8333 97.5,48.1667 99.5,48.5C 102.421,49.8085 104.754,51.8085 106.5,54.5 Z"/></g>
<g><path style="opacity:1" fill="#675920" d="M 127.5,56.5 C 130.833,57.8333 133.167,60.1667 134.5,63.5C 134.167,63.5 133.833,63.5 133.5,63.5C 131.5,61.1667 129.5,58.8333 127.5,56.5 Z"/></g>
<g><path style="opacity:1" fill="#ef7329" d="M 105.5,57.5 C 105.5,58.1667 105.5,58.8333 105.5,59.5C 103.797,58.3398 103.131,59.0065 103.5,61.5C 100.755,61.627 98.755,60.4603 97.5,58C 93.789,57.8253 90.1224,57.3253 86.5,56.5C 87.6405,55.5745 87.6405,54.7412 86.5,54C 90.0387,52.4961 93.7054,52.1628 97.5,53C 99.8171,55.1569 102.484,56.6569 105.5,57.5 Z"/></g>
<g><path style="opacity:1" fill="#e68331" d="M 105.5,57.5 C 102.484,56.6569 99.8171,55.1569 97.5,53C 93.7054,52.1628 90.0387,52.4961 86.5,54C 87.6405,54.7412 87.6405,55.5745 86.5,56.5C 90.1224,57.3253 93.789,57.8253 97.5,58C 98.755,60.4603 100.755,61.627 103.5,61.5C 103.131,59.0065 103.797,58.3398 105.5,59.5C 106.167,60.1667 106.833,60.8333 107.5,61.5C 104.957,62.3568 102.623,63.6901 100.5,65.5C 93.6485,63.6563 86.6485,62.9897 79.5,63.5C 79.5,61.8333 79.5,60.1667 79.5,58.5C 87.8334,48.3727 96.5,48.0393 105.5,57.5 Z"/></g>
<g><path style="opacity:1" fill="#efd043" d="M 111.5,47.5 C 113.185,48.1837 114.185,49.517 114.5,51.5C 121.12,55.2954 127.454,59.2954 133.5,63.5C 133.833,63.5 134.167,63.5 134.5,63.5C 134.833,63.5 135.167,63.5 135.5,63.5C 135.833,64.1667 136.167,64.8333 136.5,65.5C 137.167,66.5 137.833,67.5 138.5,68.5C 136.381,66.9125 134.714,67.2458 133.5,69.5C 134.629,71.5294 134.129,71.8627 132,70.5C 131.605,72.1786 131.772,73.8453 132.5,75.5C 131.176,76.0059 130.509,77.3392 130.5,79.5C 129.5,79.5 128.5,79.5 127.5,79.5C 127.5,78.8333 127.5,78.1667 127.5,77.5C 127.631,76.7611 127.464,76.0944 127,75.5C 123.326,72.1222 119.659,68.7889 116,65.5C 114.991,63.9751 114.491,62.3084 114.5,60.5C 110.703,60.0399 108.036,58.0399 106.5,54.5C 107.5,54.5 108.5,54.5 109.5,54.5C 109.884,52.0706 110.551,49.7373 111.5,47.5 Z"/></g>
<g><path style="opacity:1" fill="#1c1c17" d="M 135.5,63.5 C 138.614,64.0913 141.114,65.758 143,68.5C 143.494,66.8659 143.66,65.1992 143.5,63.5C 146.833,63.5 150.167,63.5 153.5,63.5C 153.5,64.5 153.5,65.5 153.5,66.5C 155.5,66.5 157.5,66.5 159.5,66.5C 159.5,65.5 159.5,64.5 159.5,63.5C 160.873,63.3433 162.207,63.51 163.5,64C 157.697,69.7502 158.364,74.5836 165.5,78.5C 162.572,79.4841 159.572,79.8174 156.5,79.5C 158.542,72.2399 155.875,68.9066 148.5,69.5C 149.5,72.8333 150.5,76.1667 151.5,79.5C 151.167,79.5 150.833,79.5 150.5,79.5C 149.145,76.1447 146.811,73.8114 143.5,72.5C 142.833,71.8333 142.167,71.1667 141.5,70.5C 140.833,67.8333 139.167,66.1667 136.5,65.5C 136.167,64.8333 135.833,64.1667 135.5,63.5 Z"/></g>
<g><path style="opacity:1" fill="#665619" d="M 136.5,65.5 C 139.167,66.1667 140.833,67.8333 141.5,70.5C 140.5,69.8333 139.5,69.1667 138.5,68.5C 137.833,67.5 137.167,66.5 136.5,65.5 Z"/></g>
<g><path style="opacity:1" fill="#e1a851" d="M 105.5,57.5 C 112.119,63.4519 118.452,69.7853 124.5,76.5C 125.325,77.3857 126.325,77.719 127.5,77.5C 127.5,78.1667 127.5,78.8333 127.5,79.5C 126.022,79.762 124.689,79.4287 123.5,78.5C 121.447,76.1093 119.114,74.1093 116.5,72.5C 115.942,68.4423 113.608,66.2756 109.5,66C 108.901,64.3775 108.234,62.8775 107.5,61.5C 106.833,60.8333 106.167,60.1667 105.5,59.5C 105.5,58.8333 105.5,58.1667 105.5,57.5 Z"/></g>
<g><path style="opacity:1" fill="#d3a13e" d="M 99.5,74.5 C 98.3951,73.3995 97.0618,72.7329 95.5,72.5C 93.7116,71.3775 91.7116,71.2109 89.5,72C 86.7151,74.4359 84.0485,76.9359 81.5,79.5C 82.454,76.8569 83.454,74.1903 84.5,71.5C 87.3556,69.9234 90.5222,68.9234 94,68.5C 97.0886,69.4191 98.922,71.4191 99.5,74.5 Z"/></g>
<g><path style="opacity:1" fill="#e79f2d" d="M 79.5,58.5 C 79.5,60.1667 79.5,61.8333 79.5,63.5C 86.6485,62.9897 93.6485,63.6563 100.5,65.5C 102.623,63.6901 104.957,62.3568 107.5,61.5C 108.234,62.8775 108.901,64.3775 109.5,66C 113.608,66.2756 115.942,68.4423 116.5,72.5C 114.338,72.8972 113.005,74.2305 112.5,76.5C 111.833,75.1667 111.167,73.8333 110.5,72.5C 107.285,75.6835 103.618,76.3502 99.5,74.5C 98.922,71.4191 97.0886,69.4191 94,68.5C 90.5222,68.9234 87.3556,69.9234 84.5,71.5C 81.4042,74.8783 77.7376,75.3783 73.5,73C 72.4267,71.7496 72.4267,70.4162 73.5,69C 72.9444,67.9889 72.2778,67.1556 71.5,66.5C 73.8062,63.5271 76.4728,60.8605 79.5,58.5 Z"/></g>
<g><path style="opacity:1" fill="#745f25" d="M 143.5,72.5 C 146.811,73.8114 149.145,76.1447 150.5,79.5C 147.909,77.5756 145.575,75.2422 143.5,72.5 Z"/></g>
<g><path style="opacity:1" fill="#efca38" d="M 60.5,76.5 C 59.8333,77.5 59.1667,78.5 58.5,79.5C 56.1807,82.6509 53.3474,85.3175 50,87.5C 48.274,86.3521 48.4407,85.1855 50.5,84C 49.5509,83.3828 48.7175,83.5494 48,84.5C 47.6667,80.5 47.3333,76.5 47,72.5C 45.3117,73.3247 45.1451,74.3247 46.5,75.5C 44.208,76.7899 42.208,78.4565 40.5,80.5C 41.186,82.0639 41.0194,83.7306 40,85.5C 37.3101,86.2181 34.4767,86.2181 31.5,85.5C 31.5,86.8333 31.5,88.1667 31.5,89.5C 29.0672,89.2729 27.4006,90.2729 26.5,92.5C 25.2719,93.3065 24.2719,94.3065 23.5,95.5C 24.0427,92.9616 25.0427,90.6282 26.5,88.5C 27.8818,86.4514 29.5484,84.7847 31.5,83.5C 32.552,83.6495 33.552,83.4828 34.5,83C 38.0872,80.2404 40.7539,76.7404 42.5,72.5C 43.1667,71.5 43.8333,70.5 44.5,69.5C 45.7095,69.0679 46.7095,68.4013 47.5,67.5C 49.1667,67.5 50.8333,67.5 52.5,67.5C 52.5,66.1667 52.5,64.8333 52.5,63.5C 56.1677,62.1693 59.501,60.1693 62.5,57.5C 63.3857,58.325 63.719,59.325 63.5,60.5C 65.5,60.5 67.5,60.5 69.5,60.5C 69.7889,65.0839 67.7889,67.7505 63.5,68.5C 62.7834,71.3229 61.7834,73.9896 60.5,76.5 Z"/></g>
<g><path style="opacity:1" fill="#b1993e" d="M 42.5,72.5 C 40.7539,76.7404 38.0872,80.2404 34.5,83C 33.552,83.4828 32.552,83.6495 31.5,83.5C 33.4201,81.3657 35.0868,79.0323 36.5,76.5C 37.1667,76.5 37.5,76.1667 37.5,75.5C 39.3542,74.759 41.0209,73.759 42.5,72.5 Z"/></g>
<g><path style="opacity:1" fill="#e6b231" d="M 70.5,66.5 C 70.8333,66.5 71.1667,66.5 71.5,66.5C 72.2778,67.1556 72.9444,67.9889 73.5,69C 72.4267,70.4162 72.4267,71.7496 73.5,73C 77.7376,75.3783 81.4042,74.8783 84.5,71.5C 83.454,74.1903 82.454,76.8569 81.5,79.5C 79.8375,81.3627 78.1709,83.3627 76.5,85.5C 75.5084,85.3284 74.8417,85.6618 74.5,86.5C 73.4168,86.5394 72.4168,86.8728 71.5,87.5C 70.8503,89.1836 69.8503,90.5169 68.5,91.5C 68.2934,88.7607 67.2934,86.4274 65.5,84.5C 65.7282,82.6031 66.7282,81.2697 68.5,80.5C 65.2317,79.513 61.8984,79.1796 58.5,79.5C 59.1667,78.5 59.8333,77.5 60.5,76.5C 63.8333,73.1667 67.1667,69.8333 70.5,66.5 Z"/></g>
<g><path style="opacity:1" fill="#594110" d="M 154.5,83.5 C 156.795,84.1355 158.461,85.4689 159.5,87.5C 157.246,86.8763 155.579,85.543 154.5,83.5 Z"/></g>
<g><path style="opacity:1" fill="#2c1e13" d="M 95.5,72.5 C 94.1266,72.3433 92.7932,72.51 91.5,73C 90,75.1667 88.1667,77 86,78.5C 85.3581,80.7619 84.5248,82.9285 83.5,85C 81.1902,85.4966 78.8568,85.6633 76.5,85.5C 78.1709,83.3627 79.8375,81.3627 81.5,79.5C 84.0485,76.9359 86.7151,74.4359 89.5,72C 91.7116,71.2109 93.7116,71.3775 95.5,72.5 Z"/></g>
<g><path style="opacity:1" fill="#eebe26" d="M 58.5,79.5 C 61.8984,79.1796 65.2317,79.513 68.5,80.5C 66.7282,81.2697 65.7282,82.6031 65.5,84.5C 67.2934,86.4274 68.2934,88.7607 68.5,91.5C 67.1266,91.3433 65.7932,91.51 64.5,92C 66.9316,93.0875 66.5983,93.5875 63.5,93.5C 63.5,94.5 63.5,95.5 63.5,96.5C 63.5,97.1667 63.5,97.8333 63.5,98.5C 62.1667,99.5 60.8333,100.5 59.5,101.5C 58.5206,104.625 58.1872,107.958 58.5,111.5C 58.1667,111.5 57.8333,111.5 57.5,111.5C 57.6399,109.876 56.9733,108.71 55.5,108C 56.7766,105.534 56.7766,103.034 55.5,100.5C 53.674,100.08 51.674,100.08 49.5,100.5C 49.3491,97.2819 48.5158,96.9485 47,99.5C 46.3333,98.8333 45.6667,98.1667 45,97.5C 42.3775,100.102 39.5442,100.602 36.5,99C 36.8333,98.6667 37.1667,98.3333 37.5,98C 35.1547,96.2172 32.488,95.2172 29.5,95C 28.6266,93.955 27.6266,93.1217 26.5,92.5C 27.4006,90.2729 29.0672,89.2729 31.5,89.5C 31.5,88.1667 31.5,86.8333 31.5,85.5C 34.4767,86.2181 37.3101,86.2181 40,85.5C 41.0194,83.7306 41.186,82.0639 40.5,80.5C 42.208,78.4565 44.208,76.7899 46.5,75.5C 45.1451,74.3247 45.3117,73.3247 47,72.5C 47.3333,76.5 47.6667,80.5 48,84.5C 48.7175,83.5494 49.5509,83.3828 50.5,84C 48.4407,85.1855 48.274,86.3521 50,87.5C 53.3474,85.3175 56.1807,82.6509 58.5,79.5 Z"/></g>
<g><path style="opacity:1" fill="#edc32f" d="M 138.5,68.5 C 139.5,69.1667 140.5,69.8333 141.5,70.5C 142.167,71.1667 142.833,71.8333 143.5,72.5C 145.575,75.2422 147.909,77.5756 150.5,79.5C 150.833,79.5 151.167,79.5 151.5,79.5C 152.5,80.8333 153.5,82.1667 154.5,83.5C 155.579,85.543 157.246,86.8763 159.5,87.5C 159.5,87.8333 159.5,88.1667 159.5,88.5C 156.407,86.7851 153.074,85.4517 149.5,84.5C 146.515,89.051 147.515,92.551 152.5,95C 151.033,96.0975 150.199,97.5975 150,99.5C 149.617,98.944 149.117,98.6107 148.5,98.5C 148.5,97.5 148.5,96.5 148.5,95.5C 147.448,95.6495 146.448,95.4828 145.5,95C 140.324,89.9913 135.324,84.8246 130.5,79.5C 130.509,77.3392 131.176,76.0059 132.5,75.5C 131.772,73.8453 131.605,72.1786 132,70.5C 134.129,71.8627 134.629,71.5294 133.5,69.5C 134.714,67.2458 136.381,66.9125 138.5,68.5 Z"/></g>
<g><path style="opacity:1" fill="#e6ba2a" d="M 116.5,72.5 C 119.114,74.1093 121.447,76.1093 123.5,78.5C 124.689,79.4287 126.022,79.762 127.5,79.5C 128.292,81.2572 129.625,82.5905 131.5,83.5C 132.308,85.4233 132.808,87.4233 133,89.5C 135.409,91.4167 137.576,93.4167 139.5,95.5C 134.95,96.1545 131.95,94.3212 130.5,90C 129.5,89.3333 128.5,89.3333 127.5,90C 131.855,94.0997 132.522,98.7663 129.5,104C 129.725,106.528 130.058,109.028 130.5,111.5C 128.833,111.5 127.167,111.5 125.5,111.5C 125.5,112.833 125.5,114.167 125.5,115.5C 123.784,115.629 122.117,115.962 120.5,116.5C 121.925,115.078 122.925,113.411 123.5,111.5C 125.262,110.738 126.262,109.404 126.5,107.5C 127.622,105.712 127.789,103.712 127,101.5C 124.855,98.8336 122.355,96.8336 119.5,95.5C 117.167,92.5 114.5,89.8333 111.5,87.5C 107.5,83.1667 103.5,78.8333 99.5,74.5C 103.618,76.3502 107.285,75.6835 110.5,72.5C 111.167,73.8333 111.833,75.1667 112.5,76.5C 113.005,74.2305 114.338,72.8972 116.5,72.5 Z"/></g>
<g><path style="opacity:1" fill="#32260f" d="M 76.5,85.5 C 73.9384,88.9409 71.6051,92.6076 69.5,96.5C 67.5049,97.2945 65.5049,97.9612 63.5,98.5C 63.5,97.8333 63.5,97.1667 63.5,96.5C 68.4412,94.5584 72.1078,91.2251 74.5,86.5C 74.8417,85.6618 75.5084,85.3284 76.5,85.5 Z"/></g>
<g><path style="opacity:1" fill="#cba643" d="M 74.5,86.5 C 72.1078,91.2251 68.4412,94.5584 63.5,96.5C 63.5,95.5 63.5,94.5 63.5,93.5C 66.5983,93.5875 66.9316,93.0875 64.5,92C 65.7932,91.51 67.1266,91.3433 68.5,91.5C 69.8503,90.5169 70.8503,89.1836 71.5,87.5C 72.4168,86.8728 73.4168,86.5394 74.5,86.5 Z"/></g>
<g><path style="opacity:1" fill="#caa843" d="M 26.5,88.5 C 25.0427,90.6282 24.0427,92.9616 23.5,95.5C 21.2367,98.2024 19.9034,101.369 19.5,105C 20.1375,109.412 21.4709,113.578 23.5,117.5C 22.1667,116.833 21.1667,115.833 20.5,114.5C 17.8333,108.167 17.8333,101.833 20.5,95.5C 21.7573,92.5726 23.7573,90.2393 26.5,88.5 Z"/></g>
<g><path style="opacity:1" fill="#87742f" d="M 119.5,95.5 C 122.355,96.8336 124.855,98.8336 127,101.5C 127.789,103.712 127.622,105.712 126.5,107.5C 126.66,105.801 126.494,104.134 126,102.5C 123.628,100.297 121.461,97.9635 119.5,95.5 Z"/></g>
<g><path style="opacity:1" fill="#f7cb59" d="M 127.5,79.5 C 128.5,79.5 129.5,79.5 130.5,79.5C 135.324,84.8246 140.324,89.9913 145.5,95C 146.448,95.4828 147.448,95.6495 148.5,95.5C 148.5,96.5 148.5,97.5 148.5,98.5C 150.039,104.52 149.372,110.187 146.5,115.5C 142.108,119.897 137.442,123.897 132.5,127.5C 131.596,126.791 131.263,125.791 131.5,124.5C 135.085,123.734 137.085,121.401 137.5,117.5C 142.765,116.05 145.431,112.384 145.5,106.5C 145.522,104.035 145.022,101.702 144,99.5C 143.586,99.9574 143.086,100.291 142.5,100.5C 141.999,98.3449 140.999,96.6782 139.5,95.5C 137.576,93.4167 135.409,91.4167 133,89.5C 132.808,87.4233 132.308,85.4233 131.5,83.5C 129.625,82.5905 128.292,81.2572 127.5,79.5 Z"/></g>
<g><path style="opacity:1" fill="#30240c" d="M 111.5,87.5 C 114.5,89.8333 117.167,92.5 119.5,95.5C 121.461,97.9635 123.628,100.297 126,102.5C 126.494,104.134 126.66,105.801 126.5,107.5C 126.262,109.404 125.262,110.738 123.5,111.5C 124.545,108.886 125.045,106.22 125,103.5C 122.906,101.473 120.573,99.8065 118,98.5C 116.01,94.6887 113.843,91.0221 111.5,87.5 Z"/></g>
<g><path style="opacity:1" fill="#f1bb1c" d="M 139.5,95.5 C 140.999,96.6782 141.999,98.3449 142.5,100.5C 143.086,100.291 143.586,99.9574 144,99.5C 145.022,101.702 145.522,104.035 145.5,106.5C 145.431,112.384 142.765,116.05 137.5,117.5C 135.797,118.66 135.131,117.993 135.5,115.5C 132.675,115.162 130.508,116.162 129,118.5C 128.667,118.167 128.333,117.833 128,117.5C 127.994,120.275 126.827,122.275 124.5,123.5C 122.895,122.57 121.395,122.57 120,123.5C 119.5,123 119,122.5 118.5,122C 120.155,120.556 120.822,118.722 120.5,116.5C 122.117,115.962 123.784,115.629 125.5,115.5C 125.5,114.167 125.5,112.833 125.5,111.5C 127.167,111.5 128.833,111.5 130.5,111.5C 130.058,109.028 129.725,106.528 129.5,104C 132.522,98.7663 131.855,94.0997 127.5,90C 128.5,89.3333 129.5,89.3333 130.5,90C 131.95,94.3212 134.95,96.1545 139.5,95.5 Z"/></g>
<g><path style="opacity:1" fill="#bf9d3d" d="M 159.5,89.5 C 161.858,91.5293 164.192,93.5293 166.5,95.5C 167.229,100.13 167.563,104.797 167.5,109.5C 167.567,110.959 167.234,112.292 166.5,113.5C 164.926,114.984 163.593,116.651 162.5,118.5C 162.544,115.684 163.544,113.351 165.5,111.5C 166.916,105.992 166.416,100.659 164,95.5C 161.695,93.9781 160.195,91.9781 159.5,89.5 Z"/></g>
<g><path style="opacity:1" fill="#483711" d="M 166.5,95.5 C 167.805,97.3972 168.471,99.7305 168.5,102.5C 168.497,105.025 168.163,107.359 167.5,109.5C 167.563,104.797 167.229,100.13 166.5,95.5 Z"/></g>
<g><path style="opacity:1" fill="#53400d" d="M 20.5,95.5 C 17.8333,101.833 17.8333,108.167 20.5,114.5C 19.8333,114.167 19.1667,113.833 18.5,113.5C 17.519,108.871 17.3523,104.204 18,99.5C 18.2004,97.6803 19.0337,96.347 20.5,95.5 Z"/></g>
<g><path style="opacity:1" fill="#251d0e" d="M 36.5,76.5 C 35.0868,79.0323 33.4201,81.3657 31.5,83.5C 29.5484,84.7847 27.8818,86.4514 26.5,88.5C 23.7573,90.2393 21.7573,92.5726 20.5,95.5C 19.0337,96.347 18.2004,97.6803 18,99.5C 17.3523,104.204 17.519,108.871 18.5,113.5C 17.7784,113.082 17.2784,112.416 17,111.5C 16.3333,106.167 16.3333,100.833 17,95.5C 21.649,89.684 26.8157,84.3507 32.5,79.5C 33.3857,78.675 33.719,77.675 33.5,76.5C 34.5,76.5 35.5,76.5 36.5,76.5 Z"/></g>
<g><path style="opacity:1" fill="#f1b721" d="M 159.5,88.5 C 159.5,88.8333 159.5,89.1667 159.5,89.5C 160.195,91.9781 161.695,93.9781 164,95.5C 166.416,100.659 166.916,105.992 165.5,111.5C 163.544,113.351 162.544,115.684 162.5,118.5C 157.733,118.77 153.399,120.103 149.5,122.5C 149.5,120.5 149.5,118.5 149.5,116.5C 148.209,116.737 147.209,116.404 146.5,115.5C 149.372,110.187 150.039,104.52 148.5,98.5C 149.117,98.6107 149.617,98.944 150,99.5C 150.199,97.5975 151.033,96.0975 152.5,95C 147.515,92.551 146.515,89.051 149.5,84.5C 153.074,85.4517 156.407,86.7851 159.5,88.5 Z"/></g>
<g><path style="opacity:1" fill="#cca63f" d="M 59.5,101.5 C 59.3379,103.527 59.5045,105.527 60,107.5C 62.6621,112.244 66.1621,116.244 70.5,119.5C 67.3368,116.748 63.6701,114.748 59.5,113.5C 58.7025,113.043 58.3691,112.376 58.5,111.5C 58.1872,107.958 58.5206,104.625 59.5,101.5 Z"/></g>
<g><path style="opacity:1" fill="#f0c82e" d="M 57.5,111.5 C 57.8333,111.5 58.1667,111.5 58.5,111.5C 58.3691,112.376 58.7025,113.043 59.5,113.5C 63.6701,114.748 67.3368,116.748 70.5,119.5C 71.8333,122.167 73.1667,124.833 74.5,127.5C 72.8007,127.473 71.4674,126.806 70.5,125.5C 68.6965,124.838 66.6965,124.505 64.5,124.5C 60.3858,124.721 56.3858,125.221 52.5,126C 46.9296,120.815 41.5963,115.481 36.5,110C 37.237,107.201 38.0703,107.034 39,109.5C 39.414,109.043 39.914,108.709 40.5,108.5C 45.9835,110.53 51.6502,111.53 57.5,111.5 Z"/></g>
<g><path style="opacity:1" fill="#5f4313" d="M 166.5,113.5 C 165.998,117.874 163.664,120.541 159.5,121.5C 160.306,120.272 161.306,119.272 162.5,118.5C 163.593,116.651 164.926,114.984 166.5,113.5 Z"/></g>
<g><path style="opacity:1" fill="#eeb71f" d="M 26.5,92.5 C 27.6266,93.1217 28.6266,93.955 29.5,95C 32.488,95.2172 35.1547,96.2172 37.5,98C 37.1667,98.3333 36.8333,98.6667 36.5,99C 39.5442,100.602 42.3775,100.102 45,97.5C 45.6667,98.1667 46.3333,98.8333 47,99.5C 48.5158,96.9485 49.3491,97.2819 49.5,100.5C 51.674,100.08 53.674,100.08 55.5,100.5C 56.7766,103.034 56.7766,105.534 55.5,108C 56.9733,108.71 57.6399,109.876 57.5,111.5C 51.6502,111.53 45.9835,110.53 40.5,108.5C 39.914,108.709 39.414,109.043 39,109.5C 38.0703,107.034 37.237,107.201 36.5,110C 41.5963,115.481 46.9296,120.815 52.5,126C 56.3858,125.221 60.3858,124.721 64.5,124.5C 66.6965,124.505 68.6965,124.838 70.5,125.5C 66.1534,125.942 65.82,126.775 69.5,128C 67.36,128.973 65.6933,130.473 64.5,132.5C 62.8647,133.681 61.198,133.681 59.5,132.5C 57.6675,133.248 56.0009,134.248 54.5,135.5C 54.6645,133.604 54.3311,131.604 53.5,129.5C 51.4189,126.515 48.5856,124.515 45,123.5C 43.9895,123.892 43.4895,124.559 43.5,125.5C 35.9088,125.408 29.2421,122.742 23.5,117.5C 21.4709,113.578 20.1375,109.412 19.5,105C 19.9034,101.369 21.2367,98.2024 23.5,95.5C 24.2719,94.3065 25.2719,93.3065 26.5,92.5 Z"/></g>
<g><path style="opacity:1" fill="#e5b725" d="M 146.5,115.5 C 147.209,116.404 148.209,116.737 149.5,116.5C 149.5,118.5 149.5,120.5 149.5,122.5C 153.399,120.103 157.733,118.77 162.5,118.5C 161.306,119.272 160.306,120.272 159.5,121.5C 156.471,124.859 153.471,128.192 150.5,131.5C 147.973,132.875 145.64,134.542 143.5,136.5C 141.852,134.544 141.185,132.211 141.5,129.5C 139.801,129.34 138.134,129.506 136.5,130C 135.274,131.635 133.941,133.135 132.5,134.5C 131.265,133.66 130.265,132.66 129.5,131.5C 130.5,130.167 131.5,128.833 132.5,127.5C 137.442,123.897 142.108,119.897 146.5,115.5 Z"/></g>
<g><path style="opacity:1" fill="#1b1b1c" d="M 186.5,126.5 C 186.5,158.833 186.5,191.167 186.5,223.5C 185.448,223.351 184.448,223.517 183.5,224C 184.451,224.718 184.617,225.551 184,226.5C 171.167,214.333 158.667,201.833 146.5,189C 147.841,187.705 149.174,187.205 150.5,187.5C 144.298,186.459 143.298,183.792 147.5,179.5C 146.024,178.12 145.024,176.453 144.5,174.5C 138.096,173.056 137.096,174.723 141.5,179.5C 141.167,180.5 140.5,181.167 139.5,181.5C 134.468,176.192 129.135,171.359 123.5,167C 122.915,165.698 122.249,164.531 121.5,163.5C 121.5,162.167 121.5,160.833 121.5,159.5C 122.167,159.5 122.833,159.5 123.5,159.5C 124.156,160.278 124.989,160.944 126,161.5C 126.5,161.167 127,160.833 127.5,160.5C 130.79,157.709 133.79,154.709 136.5,151.5C 137.386,150.675 137.719,149.675 137.5,148.5C 136.5,148.5 135.5,148.5 134.5,148.5C 134.833,147.833 135.167,147.167 135.5,146.5C 138.116,143.545 140.782,140.545 143.5,137.5C 144.978,137.762 146.311,137.429 147.5,136.5C 148.26,134.64 149.26,132.973 150.5,131.5C 153.471,128.192 156.471,124.859 159.5,121.5C 163.664,120.541 165.998,117.874 166.5,113.5C 167.234,112.292 167.567,110.959 167.5,109.5C 168.163,107.359 168.497,105.025 168.5,102.5C 168.471,99.7305 167.805,97.3972 166.5,95.5C 164.192,93.5293 161.858,91.5293 159.5,89.5C 159.5,89.1667 159.5,88.8333 159.5,88.5C 159.5,88.1667 159.5,87.8333 159.5,87.5C 162.984,88.4692 165.817,90.4692 168,93.5C 169.44,92.0696 169.774,90.403 169,88.5C 167.434,86.1777 165.267,84.6777 162.5,84C 166.933,83.5788 170.933,82.0788 174.5,79.5C 174.833,80.6667 175.167,81.8333 175.5,83C 174.138,85.5213 173.138,88.1879 172.5,91C 173.977,96.438 174.977,101.938 175.5,107.5C 174.5,107.5 173.5,107.5 172.5,107.5C 172.896,104.518 172.229,101.851 170.5,99.5C 169.891,106.766 168.724,113.766 167,120.5C 169.237,118.719 171.237,116.719 173,114.5C 174.399,117.47 174.899,120.47 174.5,123.5C 175.478,123.023 176.311,122.357 177,121.5C 177.911,124.633 179.744,125.633 182.5,124.5C 183.86,125.18 185.193,125.847 186.5,126.5 Z"/></g>
<g><path style="opacity:1" fill="#c0aa4b" d="M 70.5,119.5 C 72.4628,120.96 74.2962,122.627 76,124.5C 76.7401,125.749 76.5735,126.749 75.5,127.5C 75.1667,127.5 74.8333,127.5 74.5,127.5C 73.1667,124.833 71.8333,122.167 70.5,119.5 Z"/></g>
<g><path style="opacity:1" fill="#c4ac4a" d="M 123.5,111.5 C 122.925,113.411 121.925,115.078 120.5,116.5C 116.514,120.655 112.681,124.988 109,129.5C 106.537,130.032 104.703,131.366 103.5,133.5C 102.609,134.11 101.609,134.443 100.5,134.5C 105.861,128.807 111.195,123.14 116.5,117.5C 118.833,115.5 121.167,113.5 123.5,111.5 Z"/></g>
<g><path style="opacity:1" fill="#2a2a2b" d="M 105.5,124.5 C 105.5,125.5 105.5,126.5 105.5,127.5C 100.804,129.865 97.4709,133.532 95.5,138.5C 94.5,139.833 93.5,141.167 92.5,142.5C 91.5,142.833 90.8333,143.5 90.5,144.5C 88.8459,145.75 87.1793,147.084 85.5,148.5C 83.0402,147.063 80.3735,146.063 77.5,145.5C 78.4229,142.223 79.2562,138.89 80,135.5C 82.1476,139.398 84.3143,139.398 86.5,135.5C 87.6753,136.855 88.6753,136.688 89.5,135C 88.0267,134.29 87.3601,133.124 87.5,131.5C 89.8217,129.588 92.4884,128.255 95.5,127.5C 95.5,126.167 95.5,124.833 95.5,123.5C 96.5,123.5 97.5,123.5 98.5,123.5C 98.8301,120.891 100.33,119.224 103,118.5C 103.037,120.974 103.87,122.974 105.5,124.5 Z"/></g>
<g><path style="opacity:1" fill="#e6a728" d="M 23.5,117.5 C 29.2421,122.742 35.9088,125.408 43.5,125.5C 43.4895,124.559 43.9895,123.892 45,123.5C 48.5856,124.515 51.4189,126.515 53.5,129.5C 54.3311,131.604 54.6645,133.604 54.5,135.5C 56.0009,134.248 57.6675,133.248 59.5,132.5C 61.198,133.681 62.8647,133.681 64.5,132.5C 65.6933,130.473 67.36,128.973 69.5,128C 65.82,126.775 66.1534,125.942 70.5,125.5C 71.4674,126.806 72.8007,127.473 74.5,127.5C 72.1667,130.5 69.5,133.167 66.5,135.5C 65.5,135.5 64.5,135.5 63.5,135.5C 60.6191,136.274 57.9524,137.607 55.5,139.5C 52.107,137.937 50.7737,135.271 51.5,131.5C 49.5992,131.567 47.7659,131.233 46,130.5C 44.6315,131.703 43.1315,132.703 41.5,133.5C 40.3777,132.37 39.0443,131.703 37.5,131.5C 35.7541,129.748 33.7541,128.415 31.5,127.5C 28.4297,124.436 25.7631,121.103 23.5,117.5 Z"/></g>
<g><path style="opacity:1" fill="#2c240f" d="M 116.5,117.5 C 111.195,123.14 105.861,128.807 100.5,134.5C 98.8333,135.833 97.1667,137.167 95.5,138.5C 97.4709,133.532 100.804,129.865 105.5,127.5C 105.5,126.5 105.5,125.5 105.5,124.5C 108.443,123.224 110.776,121.224 112.5,118.5C 113.736,117.754 115.07,117.421 116.5,117.5 Z"/></g>
<g><path style="opacity:1" fill="#7b531d" d="M 31.5,127.5 C 33.7541,128.415 35.7541,129.748 37.5,131.5C 39.5,134.167 41.8333,136.5 44.5,138.5C 45.1667,139.5 45.8333,140.5 46.5,141.5C 44.2459,140.585 42.2459,139.252 40.5,137.5C 37.5,134.167 34.5,130.833 31.5,127.5 Z"/></g>
<g><path style="opacity:1" fill="#efcd36" d="M 137.5,117.5 C 137.085,121.401 135.085,123.734 131.5,124.5C 131.263,125.791 131.596,126.791 132.5,127.5C 131.5,128.833 130.5,130.167 129.5,131.5C 125.448,134.724 121.781,138.558 118.5,143C 117.552,143.483 116.552,143.649 115.5,143.5C 116.753,139.249 115.086,137.916 110.5,139.5C 108.257,136.789 106.257,136.956 104.5,140C 103.207,140.49 101.873,140.657 100.5,140.5C 101.801,138.328 102.801,135.995 103.5,133.5C 104.703,131.366 106.537,130.032 109,129.5C 112.681,124.988 116.514,120.655 120.5,116.5C 120.822,118.722 120.155,120.556 118.5,122C 119,122.5 119.5,123 120,123.5C 121.395,122.57 122.895,122.57 124.5,123.5C 126.827,122.275 127.994,120.275 128,117.5C 128.333,117.833 128.667,118.167 129,118.5C 130.508,116.162 132.675,115.162 135.5,115.5C 135.131,117.993 135.797,118.66 137.5,117.5 Z"/></g>
<g><path style="opacity:1" fill="#e99526" d="M 63.5,135.5 C 61.1333,137.862 58.4667,139.862 55.5,141.5C 52.2489,139.121 48.5823,138.121 44.5,138.5C 41.8333,136.5 39.5,134.167 37.5,131.5C 39.0443,131.703 40.3777,132.37 41.5,133.5C 43.1315,132.703 44.6315,131.703 46,130.5C 47.7659,131.233 49.5992,131.567 51.5,131.5C 50.7737,135.271 52.107,137.937 55.5,139.5C 57.9524,137.607 60.6191,136.274 63.5,135.5 Z"/></g>
<g><path style="opacity:1" fill="#422910" d="M 74.5,127.5 C 74.8333,127.5 75.1667,127.5 75.5,127.5C 73.8599,133.807 69.8599,137.807 63.5,139.5C 64.5,138.167 65.5,136.833 66.5,135.5C 69.5,133.167 72.1667,130.5 74.5,127.5 Z"/></g>
<g><path style="opacity:1" fill="#4e3816" d="M 150.5,131.5 C 149.26,132.973 148.26,134.64 147.5,136.5C 146.311,137.429 144.978,137.762 143.5,137.5C 143.5,137.167 143.5,136.833 143.5,136.5C 145.64,134.542 147.973,132.875 150.5,131.5 Z"/></g>
<g><path style="opacity:1" fill="#bcab57" d="M 100.5,134.5 C 98.8333,137.167 97.1667,139.833 95.5,142.5C 94.5,142.5 93.5,142.5 92.5,142.5C 93.5,141.167 94.5,139.833 95.5,138.5C 97.1667,137.167 98.8333,135.833 100.5,134.5 Z"/></g>
<g><path style="opacity:1" fill="#e1802f" d="M 63.5,135.5 C 64.5,135.5 65.5,135.5 66.5,135.5C 65.5,136.833 64.5,138.167 63.5,139.5C 61.1321,141.533 59.1321,143.867 57.5,146.5C 56.3052,146.678 55.1385,147.011 54,147.5C 51.9409,145.93 49.7742,144.597 47.5,143.5C 47.6716,142.508 47.3382,141.842 46.5,141.5C 45.8333,140.5 45.1667,139.5 44.5,138.5C 48.5823,138.121 52.2489,139.121 55.5,141.5C 58.4667,139.862 61.1333,137.862 63.5,135.5 Z"/></g>
<g><path style="opacity:1" fill="#1d1a15" d="M 40.5,137.5 C 42.2459,139.252 44.2459,140.585 46.5,141.5C 47.3382,141.842 47.6716,142.508 47.5,143.5C 46.448,143.351 45.448,143.517 44.5,144C 38.5953,149.209 39.5953,151.709 47.5,151.5C 47.5,153.167 47.5,154.833 47.5,156.5C 45.8008,156.66 44.1341,156.494 42.5,156C 39.5107,152.839 35.8441,151.339 31.5,151.5C 31.5,150.167 31.5,148.833 31.5,147.5C 34.4629,147.849 36.7962,146.849 38.5,144.5C 34.313,142.703 29.9796,141.37 25.5,140.5C 24.7542,139.264 24.4208,137.93 24.5,136.5C 27.4686,135.671 30.4686,135.505 33.5,136C 35.553,139.186 38.2197,141.686 41.5,143.5C 42.1667,143.167 42.8333,142.833 43.5,142.5C 42.0476,141.06 41.0476,139.394 40.5,137.5 Z"/></g>
<g><path style="opacity:1" fill="#7f4221" d="M 47.5,143.5 C 49.7742,144.597 51.9409,145.93 54,147.5C 55.1385,147.011 56.3052,146.678 57.5,146.5C 57.3893,147.117 57.056,147.617 56.5,148C 52.3054,148.987 49.3054,147.487 47.5,143.5 Z"/></g>
<g><path style="opacity:1" fill="#efd84c" d="M 103.5,133.5 C 102.801,135.995 101.801,138.328 100.5,140.5C 101.873,140.657 103.207,140.49 104.5,140C 106.257,136.956 108.257,136.789 110.5,139.5C 115.086,137.916 116.753,139.249 115.5,143.5C 114.216,146.117 112.216,148.117 109.5,149.5C 108.873,150.417 108.539,151.417 108.5,152.5C 106.403,155.053 104.07,157.386 101.5,159.5C 99.5648,160.15 97.5648,160.483 95.5,160.5C 98.3845,157.701 101.551,155.034 105,152.5C 105.828,149.406 104.828,147.072 102,145.5C 95.4759,148.33 89.6425,151.997 84.5,156.5C 85.8333,151.833 88.8333,148.833 93.5,147.5C 93.3653,145.446 94.032,143.779 95.5,142.5C 97.1667,139.833 98.8333,137.167 100.5,134.5C 101.609,134.443 102.609,134.11 103.5,133.5 Z"/></g>
<g><path style="opacity:1" fill="#d3a537" d="M 143.5,136.5 C 143.5,136.833 143.5,137.167 143.5,137.5C 140.782,140.545 138.116,143.545 135.5,146.5C 132.833,148.5 130.167,150.5 127.5,152.5C 127.5,151.5 127.5,150.5 127.5,149.5C 128.5,149.5 129.5,149.5 130.5,149.5C 130.833,147.5 131.167,145.5 131.5,143.5C 132.978,143.762 134.311,143.429 135.5,142.5C 137.503,139.609 140.17,137.609 143.5,136.5 Z"/></g>
<g><path style="opacity:1" fill="#e8ac26" d="M 143.5,136.5 C 140.17,137.609 137.503,139.609 135.5,142.5C 134.311,143.429 132.978,143.762 131.5,143.5C 131.167,145.5 130.833,147.5 130.5,149.5C 129.5,149.5 128.5,149.5 127.5,149.5C 127.5,148.5 127.5,147.5 127.5,146.5C 122.361,145.739 118.027,147.239 114.5,151C 112.414,151.315 110.414,151.815 108.5,152.5C 108.539,151.417 108.873,150.417 109.5,149.5C 112.216,148.117 114.216,146.117 115.5,143.5C 116.552,143.649 117.552,143.483 118.5,143C 121.781,138.558 125.448,134.724 129.5,131.5C 130.265,132.66 131.265,133.66 132.5,134.5C 133.941,133.135 135.274,131.635 136.5,130C 138.134,129.506 139.801,129.34 141.5,129.5C 141.185,132.211 141.852,134.544 143.5,136.5 Z"/></g>
<g><path style="opacity:1" fill="#afa359" d="M 90.5,144.5 C 88.8116,148.188 86.145,150.855 82.5,152.5C 83.5,151.167 84.5,149.833 85.5,148.5C 87.1793,147.084 88.8459,145.75 90.5,144.5 Z"/></g>
<g><path style="opacity:1" fill="#563917" d="M 135.5,146.5 C 135.167,147.167 134.833,147.833 134.5,148.5C 132.786,151.213 130.453,153.213 127.5,154.5C 127.5,153.833 127.5,153.167 127.5,152.5C 130.167,150.5 132.833,148.5 135.5,146.5 Z"/></g>
<g><path style="opacity:1" fill="#f1e062" d="M 92.5,142.5 C 93.5,142.5 94.5,142.5 95.5,142.5C 94.032,143.779 93.3653,145.446 93.5,147.5C 88.8333,148.833 85.8333,151.833 84.5,156.5C 89.6425,151.997 95.4759,148.33 102,145.5C 104.828,147.072 105.828,149.406 105,152.5C 101.551,155.034 98.3845,157.701 95.5,160.5C 89.7736,161.081 85.1069,159.247 81.5,155C 81.7432,154.098 82.0766,153.265 82.5,152.5C 86.145,150.855 88.8116,148.188 90.5,144.5C 90.8333,143.5 91.5,142.833 92.5,142.5 Z"/></g>
<g><path style="opacity:1" fill="#78521e" d="M 127.5,154.5 C 126.167,156.167 124.833,157.833 123.5,159.5C 122.833,159.5 122.167,159.5 121.5,159.5C 122.911,157.086 124.911,155.419 127.5,154.5 Z"/></g>
<g><path style="opacity:1" fill="#231424" d="M 134.5,148.5 C 135.5,148.5 136.5,148.5 137.5,148.5C 137.719,149.675 137.386,150.675 136.5,151.5C 133.79,154.709 130.79,157.709 127.5,160.5C 127,160.833 126.5,161.167 126,161.5C 124.989,160.944 124.156,160.278 123.5,159.5C 124.833,157.833 126.167,156.167 127.5,154.5C 130.453,153.213 132.786,151.213 134.5,148.5 Z"/></g>
<g><path style="opacity:1" fill="#e79924" d="M 127.5,149.5 C 127.5,150.5 127.5,151.5 127.5,152.5C 127.5,153.167 127.5,153.833 127.5,154.5C 124.911,155.419 122.911,157.086 121.5,159.5C 120.167,160.5 118.833,161.5 117.5,162.5C 117.5,161.5 117.5,160.5 117.5,159.5C 115.5,159.5 113.5,159.5 111.5,159.5C 111.333,162.957 110.333,163.29 108.5,160.5C 106.257,159.526 103.924,159.192 101.5,159.5C 104.07,157.386 106.403,155.053 108.5,152.5C 110.414,151.815 112.414,151.315 114.5,151C 118.027,147.239 122.361,145.739 127.5,146.5C 127.5,147.5 127.5,148.5 127.5,149.5 Z"/></g>
<g><path style="opacity:1" fill="#e0892c" d="M 82.5,152.5 C 82.0766,153.265 81.7432,154.098 81.5,155C 85.1069,159.247 89.7736,161.081 95.5,160.5C 97.5648,160.483 99.5648,160.15 101.5,159.5C 103.924,159.192 106.257,159.526 108.5,160.5C 110.333,163.29 111.333,162.957 111.5,159.5C 113.5,159.5 115.5,159.5 117.5,159.5C 117.5,160.5 117.5,161.5 117.5,162.5C 115.479,165.235 113.479,167.901 111.5,170.5C 109.833,171.833 108.167,173.167 106.5,174.5C 106.5,173.167 106.5,171.833 106.5,170.5C 107.703,168.366 109.537,167.032 112,166.5C 112.483,165.552 112.649,164.552 112.5,163.5C 109.64,163.916 107.474,162.916 106,160.5C 104.547,162.431 102.88,164.098 101,165.5C 92.1354,161.641 82.9687,160.641 73.5,162.5C 73.8333,161.833 74.1667,161.167 74.5,160.5C 76.2294,159.764 77.2294,158.43 77.5,156.5C 79.1722,155.13 80.8388,153.797 82.5,152.5 Z"/></g>
<g><path style="opacity:1" fill="#633a1e" d="M 121.5,159.5 C 121.5,160.833 121.5,162.167 121.5,163.5C 120.448,163.351 119.448,163.517 118.5,164C 116.688,166.86 114.354,169.027 111.5,170.5C 113.479,167.901 115.479,165.235 117.5,162.5C 118.833,161.5 120.167,160.5 121.5,159.5 Z"/></g>
<g><path style="opacity:1" fill="#a7663b" d="M 74.5,160.5 C 74.1667,161.167 73.8333,161.833 73.5,162.5C 72.8509,167.177 74.8509,170.51 79.5,172.5C 79.5,173.167 79.5,173.833 79.5,174.5C 75.5216,172.522 72.5216,169.522 70.5,165.5C 71.1539,163.142 72.4872,161.475 74.5,160.5 Z"/></g>
<g><path style="opacity:1" fill="#ed7c22" d="M 106.5,170.5 C 103.556,172.548 100.556,172.715 97.5,171C 91.4853,170.576 85.4853,170.076 79.5,169.5C 79.762,168.022 79.4287,166.689 78.5,165.5C 78.1667,166.167 77.8333,166.833 77.5,167.5C 78.1869,169.177 78.8535,170.844 79.5,172.5C 74.8509,170.51 72.8509,167.177 73.5,162.5C 82.9687,160.641 92.1354,161.641 101,165.5C 102.88,164.098 104.547,162.431 106,160.5C 107.474,162.916 109.64,163.916 112.5,163.5C 112.649,164.552 112.483,165.552 112,166.5C 109.537,167.032 107.703,168.366 106.5,170.5 Z"/></g>
<g><path style="opacity:1" fill="#321b12" d="M 77.5,156.5 C 77.2294,158.43 76.2294,159.764 74.5,160.5C 72.4872,161.475 71.1539,163.142 70.5,165.5C 72.5216,169.522 75.5216,172.522 79.5,174.5C 79.5,174.833 79.5,175.167 79.5,175.5C 78.0222,175.762 76.6888,175.429 75.5,174.5C 73.9571,171.61 71.6238,169.943 68.5,169.5C 67.9862,167.488 67.8195,165.488 68,163.5C 70.4913,161.71 72.658,159.543 74.5,157C 75.448,156.517 76.448,156.351 77.5,156.5 Z"/></g>
<g><path style="opacity:1" fill="#ed6926" d="M 106.5,170.5 C 106.5,171.833 106.5,173.167 106.5,174.5C 106.5,174.833 106.5,175.167 106.5,175.5C 105.167,175.5 103.833,175.5 102.5,175.5C 99.5988,177.004 96.4321,177.67 93,177.5C 88.4284,177.064 83.9284,176.397 79.5,175.5C 79.5,175.167 79.5,174.833 79.5,174.5C 79.5,173.833 79.5,173.167 79.5,172.5C 78.8535,170.844 78.1869,169.177 77.5,167.5C 77.8333,166.833 78.1667,166.167 78.5,165.5C 79.4287,166.689 79.762,168.022 79.5,169.5C 85.4853,170.076 91.4853,170.576 97.5,171C 100.556,172.715 103.556,172.548 106.5,170.5 Z"/></g>
<g><path style="opacity:1" fill="#1a1a1c" d="M 121.5,163.5 C 122.249,164.531 122.915,165.698 123.5,167C 129.135,171.359 134.468,176.192 139.5,181.5C 140.5,181.167 141.167,180.5 141.5,179.5C 137.096,174.723 138.096,173.056 144.5,174.5C 145.024,176.453 146.024,178.12 147.5,179.5C 143.298,183.792 144.298,186.459 150.5,187.5C 149.174,187.205 147.841,187.705 146.5,189C 158.667,201.833 171.167,214.333 184,226.5C 184.617,225.551 184.451,224.718 183.5,224C 184.448,223.517 185.448,223.351 186.5,223.5C 186.5,226.167 186.5,228.833 186.5,231.5C 158.833,231.5 131.167,231.5 103.5,231.5C 102.524,230.185 101.524,228.852 100.5,227.5C 100.833,227.167 101.167,226.833 101.5,226.5C 102.728,229.071 104.728,230.405 107.5,230.5C 107.5,229.167 107.5,227.833 107.5,226.5C 108.5,226.5 109.5,226.5 110.5,226.5C 110.297,224.61 110.963,223.11 112.5,222C 112.167,221.667 111.833,221.333 111.5,221C 113.5,220.333 115.5,219.667 117.5,219C 116.304,218.346 116.304,217.846 117.5,217.5C 118.451,218.326 119.451,218.492 120.5,218C 119.829,217.014 119.829,215.847 120.5,214.5C 121.77,206.763 118.77,204.096 111.5,206.5C 112.69,203.094 112.023,202.761 109.5,205.5C 108.5,205.5 107.5,205.5 106.5,205.5C 105.504,214.821 104.504,214.821 103.5,205.5C 102.167,205.5 100.833,205.5 99.5,205.5C 100.52,200.507 99.3529,200.174 96,204.5C 93.5859,203.144 91.4193,203.478 89.5,205.5C 88.0813,204.549 86.4147,204.216 84.5,204.5C 84.2865,202.856 84.6198,201.356 85.5,200C 84.552,199.517 83.552,199.351 82.5,199.5C 82.5,196.833 82.5,194.167 82.5,191.5C 86.9225,191.31 91.2559,190.643 95.5,189.5C 95.5,188.167 95.5,186.833 95.5,185.5C 92.6424,185.595 90.3091,186.762 88.5,189C 82.7283,189.689 77.0616,189.189 71.5,187.5C 68.7943,187.481 66.2943,188.148 64,189.5C 64.7674,185.052 67.4341,182.052 72,180.5C 74.4087,182.62 76.9087,184.62 79.5,186.5C 80.7362,185.754 82.0695,185.421 83.5,185.5C 83.762,184.022 83.4287,182.689 82.5,181.5C 81.2613,181.058 80.2613,180.391 79.5,179.5C 86.5232,181.628 93.5232,181.961 100.5,180.5C 101.873,180.657 103.207,180.49 104.5,180C 105.878,178.287 107.545,176.953 109.5,176C 111.155,174.556 111.822,172.722 111.5,170.5C 114.354,169.027 116.688,166.86 118.5,164C 119.448,163.517 120.448,163.351 121.5,163.5 Z"/></g>
<g><path style="opacity:1" fill="#cb5d38" d="M 79.5,176.5 C 79.5,176.167 79.5,175.833 79.5,175.5C 83.9284,176.397 88.4284,177.064 93,177.5C 96.4321,177.67 99.5988,177.004 102.5,175.5C 101.657,177.173 100.324,178.34 98.5,179C 94.8484,179.499 91.1817,179.665 87.5,179.5C 84.5537,179.103 81.887,178.103 79.5,176.5 Z"/></g>
<g><path style="opacity:1" fill="#33160b" d="M 111.5,170.5 C 111.822,172.722 111.155,174.556 109.5,176C 107.545,176.953 105.878,178.287 104.5,180C 103.207,180.49 101.873,180.657 100.5,180.5C 102.869,179.31 104.869,177.643 106.5,175.5C 106.5,175.167 106.5,174.833 106.5,174.5C 108.167,173.167 109.833,171.833 111.5,170.5 Z"/></g>
<g><path style="opacity:1" fill="#75341f" d="M 102.5,175.5 C 103.833,175.5 105.167,175.5 106.5,175.5C 104.869,177.643 102.869,179.31 100.5,180.5C 95.9677,180.818 91.6344,180.485 87.5,179.5C 91.1817,179.665 94.8484,179.499 98.5,179C 100.324,178.34 101.657,177.173 102.5,175.5 Z"/></g>
<g><path style="opacity:1" fill="#2d1307" d="M 79.5,176.5 C 81.887,178.103 84.5537,179.103 87.5,179.5C 91.6344,180.485 95.9677,180.818 100.5,180.5C 93.5232,181.961 86.5232,181.628 79.5,179.5C 79.5,178.5 79.5,177.5 79.5,176.5 Z"/></g>
<g><path style="opacity:1" fill="#d6d8d7" d="M 38.5,201.5 C 41.1873,201.336 43.854,201.503 46.5,202C 49.9661,204.661 50.2994,207.661 47.5,211C 45.5273,211.495 43.5273,211.662 41.5,211.5C 41.5,213.167 41.5,214.833 41.5,216.5C 40.5,216.5 39.5,216.5 38.5,216.5C 38.5,211.5 38.5,206.5 38.5,201.5 Z"/></g>
<g><path style="opacity:1" fill="#d9d9da" d="M 144.5,201.5 C 145.5,201.5 146.5,201.5 147.5,201.5C 147.5,206.5 147.5,211.5 147.5,216.5C 145.403,215.647 143.403,215.647 141.5,216.5C 139.971,216.471 138.804,215.804 138,214.5C 137.333,212.167 137.333,209.833 138,207.5C 139.733,205.398 141.733,205.065 144,206.5C 144.494,204.866 144.66,203.199 144.5,201.5 Z"/></g>
<g><path style="opacity:1" fill="#686a69" d="M 41.5,205.5 C 42.9187,204.549 44.5853,204.216 46.5,204.5C 46.7678,206.099 46.4345,207.432 45.5,208.5C 45.5,207.5 45.5,206.5 45.5,205.5C 44.1667,205.5 42.8333,205.5 41.5,205.5 Z"/></g>
<g><path style="opacity:1" fill="#dbdbdb" d="M 131.5,201.5 C 132.5,201.5 133.5,201.5 134.5,201.5C 134.274,206.562 134.608,211.562 135.5,216.5C 134.178,216.67 133.011,216.337 132,215.5C 131.501,210.845 131.334,206.179 131.5,201.5 Z"/></g>
<g><path style="opacity:1" fill="#191a19" d="M 41.5,205.5 C 42.8333,205.5 44.1667,205.5 45.5,205.5C 45.5,206.5 45.5,207.5 45.5,208.5C 44.1667,208.5 42.8333,208.5 41.5,208.5C 41.5,207.5 41.5,206.5 41.5,205.5 Z"/></g>
<g><path style="opacity:1" fill="#dad9d9" d="M 68.5,205.5 C 65.8333,209.167 65.8333,212.833 68.5,216.5C 66.8561,216.714 65.3561,216.38 64,215.5C 63.6852,212.628 63.1852,209.795 62.5,207C 63.5,205.5 64.5,204 65.5,202.5C 66.1411,203.993 67.1411,204.993 68.5,205.5 Z"/></g>
<g><path style="opacity:1" fill="#dfdfde" d="M 123.5,205.5 C 125.331,206.052 126.997,206.052 128.5,205.5C 129.386,206.325 129.719,207.325 129.5,208.5C 128.5,208.5 127.5,208.5 126.5,208.5C 126.5,211.167 126.5,213.833 126.5,216.5C 125.5,216.5 124.5,216.5 123.5,216.5C 123.5,212.833 123.5,209.167 123.5,205.5 Z"/></g>
<g><path style="opacity:1" fill="#d5d5d4" d="M 99.5,205.5 C 100.833,205.5 102.167,205.5 103.5,205.5C 104.504,214.821 105.504,214.821 106.5,205.5C 107.5,205.5 108.5,205.5 109.5,205.5C 108.417,209.085 107.751,212.751 107.5,216.5C 106.022,216.762 104.689,216.429 103.5,215.5C 102.167,208.833 100.833,208.833 99.5,215.5C 98.3112,216.429 96.9778,216.762 95.5,216.5C 95.2494,212.751 94.5828,209.085 93.5,205.5C 94.5,205.5 95.5,205.5 96.5,205.5C 97.5,214.833 98.5,214.833 99.5,205.5 Z"/></g>
<g><path style="opacity:1" fill="#555555" d="M 131.5,201.5 C 132.946,200.387 134.613,200.22 136.5,201C 135.674,206.3 135.341,211.466 135.5,216.5C 134.608,211.562 134.274,206.562 134.5,201.5C 133.5,201.5 132.5,201.5 131.5,201.5 Z"/></g>
<g><path style="opacity:1" fill="#d1d0cf" d="M 51.5,205.5 C 54.6852,205.02 57.5185,205.686 60,207.5C 60.5022,210.513 61.0022,213.513 61.5,216.5C 58.242,215.932 54.9087,215.766 51.5,216C 50.2528,214.506 50.2528,213.006 51.5,211.5C 59.3782,209.901 59.3782,208.901 51.5,208.5C 51.5,207.5 51.5,206.5 51.5,205.5 Z"/></g>
<g><path style="opacity:1" fill="#646463" d="M 68.5,205.5 C 67.1667,209.167 67.1667,212.833 68.5,216.5C 65.8333,212.833 65.8333,209.167 68.5,205.5 Z"/></g>
<g><path style="opacity:1" fill="#d5d4d4" d="M 72.5,205.5 C 80.6178,205.382 82.6178,208.882 78.5,216C 71.4949,217.324 68.9949,214.49 71,207.5C 71.7172,206.956 72.2172,206.289 72.5,205.5 Z"/></g>
<g><path style="opacity:1" fill="#292827" d="M 73.5,208.5 C 74.8333,208.5 76.1667,208.5 77.5,208.5C 77.9492,210.977 77.2825,212.977 75.5,214.5C 73.7175,212.977 73.0508,210.977 73.5,208.5 Z"/></g>
<g><path style="opacity:1" fill="#2d2c2b" d="M 140.5,208.5 C 141.833,208.5 143.167,208.5 144.5,208.5C 144.949,210.977 144.283,212.977 142.5,214.5C 140.717,212.977 140.051,210.977 140.5,208.5 Z"/></g>
<g><path style="opacity:1" fill="#363535" d="M 53.5,212.5 C 54.675,212.281 55.675,212.614 56.5,213.5C 54.9483,214.798 53.9483,214.465 53.5,212.5 Z"/></g>
<g><path style="opacity:1" fill="#cecdcd" d="M 89.5,205.5 C 92.5575,208.409 93.0575,211.742 91,215.5C 83.5222,217.932 80.8555,215.265 83,207.5C 84.7889,205.771 86.9556,205.104 89.5,205.5 Z"/></g>
<g><path style="opacity:1" fill="#201f1d" d="M 85.5,208.5 C 86.5,208.5 87.5,208.5 88.5,208.5C 88.5,210.5 88.5,212.5 88.5,214.5C 87.5,214.5 86.5,214.5 85.5,214.5C 85.5,212.5 85.5,210.5 85.5,208.5 Z"/></g>
<g><path style="opacity:1" fill="#cdcdcd" d="M 120.5,214.5 C 112.08,218.411 109.08,215.744 111.5,206.5C 118.77,204.096 121.77,206.763 120.5,214.5 Z"/></g>
<g><path style="opacity:1" fill="#272624" d="M 114.5,208.5 C 115.5,208.5 116.5,208.5 117.5,208.5C 117.5,210.5 117.5,212.5 117.5,214.5C 116.5,214.5 115.5,214.5 114.5,214.5C 114.5,212.5 114.5,210.5 114.5,208.5 Z"/></g>
</svg>
