<?xml version="1.0" encoding="UTF-8"?>
<!DOCTYPE svg PUBLIC "-//W3C//DTD SVG 1.1//EN" "http://www.w3.org/Graphics/SVG/1.1/DTD/svg11.dtd">
<svg xmlns="http://www.w3.org/2000/svg" version="1.1" width="192px" height="192px" style="shape-rendering:geometricPrecision; text-rendering:geometricPrecision; image-rendering:optimizeQuality; fill-rule:evenodd; clip-rule:evenodd" xmlns:xlink="http://www.w3.org/1999/xlink">
<g><path style="opacity:0.888" fill="#ad93fe" d="M 94.5,-0.5 C 95.1667,-0.5 95.8333,-0.5 96.5,-0.5C 96.3954,6.91178 97.062,14.2451 98.5,21.5C 96.6103,21.8895 95.1103,20.8895 94,18.5C 93.7679,19.7375 93.2679,20.7375 92.5,21.5C 93.938,14.2451 94.6046,6.91178 94.5,-0.5 Z"/></g>
<g><path style="opacity:0.997" fill="#a591ff" d="M 98.5,21.5 C 99.9636,25.0194 100.964,28.6861 101.5,32.5C 99.7333,33.65 98.5666,32.9833 98,30.5C 97.0862,31.6537 96.2529,31.487 95.5,30C 95.8333,29.6667 96.1667,29.3333 96.5,29C 94.7359,26.7699 93.0693,24.9365 91.5,23.5C 91.8333,22.8333 92.1667,22.1667 92.5,21.5C 93.2679,20.7375 93.7679,19.7375 94,18.5C 95.1103,20.8895 96.6103,21.8895 98.5,21.5 Z"/></g>
<g><path style="opacity:0.949" fill="#9f90ff" d="M 91.5,23.5 C 93.0693,24.9365 94.7359,26.7699 96.5,29C 96.1667,29.3333 95.8333,29.6667 95.5,30C 96.2529,31.487 97.0862,31.6537 98,30.5C 98.5666,32.9833 99.7333,33.65 101.5,32.5C 103.736,36.6446 105.736,40.978 107.5,45.5C 102.191,40.6868 97.3581,35.3535 93,29.5C 92.3292,28.7476 91.4959,28.4142 90.5,28.5C 90.6287,26.7839 90.962,25.1172 91.5,23.5 Z"/></g>
<g><path style="opacity:0.977" fill="#9990fe" d="M 90.5,28.5 C 91.4959,28.4142 92.3292,28.7476 93,29.5C 97.3581,35.3535 102.191,40.6868 107.5,45.5C 111.164,50.825 114.83,56.1583 118.5,61.5C 116.265,60.7721 114.432,59.4388 113,57.5C 105.651,49.1473 98.651,40.4806 92,31.5C 91.2303,30.4019 90.397,30.4019 89.5,31.5C 89.2627,30.209 89.596,29.209 90.5,28.5 Z"/></g>
<g><path style="opacity:1" fill="#8c8ffe" d="M 88.5,33.5 C 102.518,47.3619 115.352,62.3619 127,78.5C 128.955,79.4533 130.622,80.7866 132,82.5C 134.111,84.7888 135.611,87.4555 136.5,90.5C 121.544,73.9433 107.044,56.9433 93,39.5C 91.549,37.5359 89.7157,36.2026 87.5,35.5C 87.8333,34.8333 88.1667,34.1667 88.5,33.5 Z"/></g>
<g><path style="opacity:0.993" fill="#4d8ffd" d="M 77.5,54.5 C 95.3967,75.6869 112.897,96.6869 130,117.5C 130.671,116.748 131.504,116.414 132.5,116.5C 131.564,117.974 130.23,118.974 128.5,119.5C 112.746,100.521 96.4131,81.3547 79.5,62C 79.8333,61.6667 80.1667,61.3333 80.5,61C 78.7208,59.8596 77.0541,58.693 75.5,57.5C 75.9321,56.2905 76.5987,55.2905 77.5,54.5 Z"/></g>
<g><path style="opacity:0.999" fill="#808ffe" d="M 87.5,36.5 C 97.3502,48.3045 107.35,60.1379 117.5,72C 116.944,72.3826 116.611,72.8826 116.5,73.5C 114.264,72.6109 112.264,71.2776 110.5,69.5C 106.861,64.361 102.694,59.6944 98,55.5C 97.0602,53.0582 95.8935,50.7249 94.5,48.5C 90.8003,46.0905 87.8003,43.0905 85.5,39.5C 85.9321,38.2905 86.5987,37.2905 87.5,36.5 Z"/></g>
<g><path style="opacity:0.993" fill="#438efd" d="M 75.5,57.5 C 77.0541,58.693 78.7208,59.8596 80.5,61C 80.1667,61.3333 79.8333,61.6667 79.5,62C 96.4131,81.3547 112.746,100.521 128.5,119.5C 127.833,120.833 126.833,121.833 125.5,122.5C 109.064,103.496 92.8973,84.1629 77,64.5C 75.871,62.8588 74.371,61.8588 72.5,61.5C 72.7376,59.5956 73.7376,58.2623 75.5,57.5 Z"/></g>
<g><path style="opacity:0.999" fill="#378efc" d="M 72.5,61.5 C 74.371,61.8588 75.871,62.8588 77,64.5C 92.8973,84.1629 109.064,103.496 125.5,122.5C 124.5,124.167 123.167,125.5 121.5,126.5C 121.803,123.412 120.47,121.746 117.5,121.5C 117.649,120.448 117.483,119.448 117,118.5C 101.019,100.515 85.5193,82.1821 70.5,63.5C 70.8333,62.5 71.5,61.8333 72.5,61.5 Z"/></g>
<g><path style="opacity:1" fill="#568ffd" d="M 79.5,51.5 C 80.2161,51.7831 81.0494,52.1164 82,52.5C 92.3556,65.6802 103.189,78.3469 114.5,90.5C 120.5,98.1667 126.5,105.833 132.5,113.5C 133.325,114.386 134.325,114.719 135.5,114.5C 134.71,115.401 133.71,116.068 132.5,116.5C 131.504,116.414 130.671,116.748 130,117.5C 112.897,96.6869 95.3967,75.6869 77.5,54.5C 77.9321,53.2905 78.5987,52.2905 79.5,51.5 Z"/></g>
<g><path style="opacity:0.999" fill="#868ffe" d="M 87.5,35.5 C 89.7157,36.2026 91.549,37.5359 93,39.5C 107.044,56.9433 121.544,73.9433 136.5,90.5C 139.408,95.2483 142.908,99.5816 147,103.5C 147.483,104.448 147.649,105.448 147.5,106.5C 146.341,108.25 144.674,109.25 142.5,109.5C 143.048,108.312 143.381,107.145 143.5,106C 142.584,105.722 141.918,105.222 141.5,104.5C 140.151,99.1549 137.151,94.9882 132.5,92C 132.833,91.6667 133.167,91.3333 133.5,91C 128.236,84.5725 122.57,78.7391 116.5,73.5C 116.611,72.8826 116.944,72.3826 117.5,72C 107.35,60.1379 97.3502,48.3045 87.5,36.5C 87.5,36.1667 87.5,35.8333 87.5,35.5 Z"/></g>
<g><path style="opacity:0.977" fill="#9990ff" d="M 119.5,62.5 C 124.193,66.8614 128.859,71.1948 133.5,75.5C 132.761,75.369 132.094,75.5357 131.5,76C 140.087,84.4181 147.753,93.5847 154.5,103.5C 153.71,104.401 152.71,105.068 151.5,105.5C 151.509,103.692 151.009,102.025 150,100.5C 139.322,88.82 128.989,76.82 119,64.5C 118.308,63.5632 118.475,62.8966 119.5,62.5 Z"/></g>
<g><path style="opacity:1" fill="#788ffe" d="M 85.5,39.5 C 87.8003,43.0905 90.8003,46.0905 94.5,48.5C 95.8935,50.7249 97.0602,53.0582 98,55.5C 102.694,59.6944 106.861,64.361 110.5,69.5C 112.264,71.2776 114.264,72.6109 116.5,73.5C 115.209,74.4728 115.209,75.4728 116.5,76.5C 122.742,82.0498 127.742,88.3831 131.5,95.5C 134.632,98.8119 137.965,101.812 141.5,104.5C 141.918,105.222 142.584,105.722 143.5,106C 143.381,107.145 143.048,108.312 142.5,109.5C 142.5,110.167 142.167,110.5 141.5,110.5C 139.57,106.734 136.736,103.734 133,101.5C 129.839,95.8529 126.172,90.5195 122,85.5C 110.76,73.0043 99.4268,60.671 88,48.5C 86.0972,46.559 85.2639,44.2257 85.5,41.5C 85.5,40.8333 85.5,40.1667 85.5,39.5 Z"/></g>
<g><path style="opacity:1" fill="#168efc" d="M 65.5,68.5 C 67.98,72.1091 70.48,75.7757 73,79.5C 87.6688,97 102.502,114.333 117.5,131.5C 116.136,133.191 114.803,134.858 113.5,136.5C 96.2645,115.54 78.2645,94.5405 59.5,73.5C 61.4752,71.863 63.4752,70.1964 65.5,68.5 Z"/></g>
<g><path style="opacity:0.998" fill="#0a8cfc" d="M 59.5,73.5 C 78.2645,94.5405 96.2645,115.54 113.5,136.5C 112.167,138.833 110.833,141.167 109.5,143.5C 108.153,142.829 106.986,142.829 106,143.5C 101.09,137.348 96.4237,131.015 92,124.5C 90.9326,123.809 89.7659,123.309 88.5,123C 88.8333,122.667 89.1667,122.333 89.5,122C 85.696,117.525 81.8627,113.025 78,108.5C 77.3333,109.833 76.6667,109.833 76,108.5C 75.1376,106.913 74.4709,105.246 74,103.5C 66.2202,95.564 59.0535,87.2307 52.5,78.5C 55.0094,77.0787 57.3428,75.4121 59.5,73.5 Z"/></g>
<g><path style="opacity:1" fill="#6e8ffe" d="M 85.5,41.5 C 85.2639,44.2257 86.0972,46.559 88,48.5C 99.4268,60.671 110.76,73.0043 122,85.5C 126.172,90.5195 129.839,95.8529 133,101.5C 136.736,103.734 139.57,106.734 141.5,110.5C 139.999,111.752 138.332,112.752 136.5,113.5C 131.156,102.999 124.156,93.8328 115.5,86C 115.833,85.6667 116.167,85.3333 116.5,85C 111.801,82.4707 108.801,78.6373 107.5,73.5C 106.178,73.67 105.011,73.3366 104,72.5C 97.7735,64.9506 91.6068,57.4506 85.5,50C 85.8333,49.6667 86.1667,49.3333 86.5,49C 85.552,48.5172 84.552,48.3505 83.5,48.5C 83.5,47.5 83.5,46.5 83.5,45.5C 83.6596,43.847 84.3263,42.5137 85.5,41.5 Z"/></g>
<g><path style="opacity:0.996" fill="#a090ff" d="M 133.5,75.5 C 137.336,77.5836 141.003,79.917 144.5,82.5C 143.083,85.6325 144.417,88.1325 148.5,90C 148.167,90.3333 147.833,90.6667 147.5,91C 149.5,92.3333 151.5,93.6667 153.5,95C 152.216,96.2975 152.383,97.4642 154,98.5C 154.718,97.5494 155.551,97.3828 156.5,98C 157.348,99.1882 157.348,100.688 156.5,102.5C 156.158,103.338 155.492,103.672 154.5,103.5C 147.753,93.5847 140.087,84.4181 131.5,76C 132.094,75.5357 132.761,75.369 133.5,75.5 Z"/></g>
<g><path style="opacity:0.998" fill="#1087fc" d="M 52.5,78.5 C 59.0535,87.2307 66.2202,95.564 74,103.5C 74.4709,105.246 75.1376,106.913 76,108.5C 76.6667,109.833 77.3333,109.833 78,108.5C 81.8627,113.025 85.696,117.525 89.5,122C 89.1667,122.333 88.8333,122.667 88.5,123C 89.7659,123.309 90.9326,123.809 92,124.5C 96.4237,131.015 101.09,137.348 106,143.5C 106.986,142.829 108.153,142.829 109.5,143.5C 107.914,145.67 106.58,148.004 105.5,150.5C 101.442,146.96 97.1086,142.794 92.5,138C 92.8333,137.667 93.1667,137.333 93.5,137C 84.6462,127.129 76.1462,117.629 68,108.5C 66,105.5 64,102.5 62,99.5C 61.586,99.9574 61.086,100.291 60.5,100.5C 59.4235,98.013 58.0902,95.6797 56.5,93.5C 52.4795,90.169 49.1461,86.5023 46.5,82.5C 48.4632,81.1798 50.4632,79.8465 52.5,78.5 Z"/></g>
<g><path style="opacity:1" fill="#638ffe" d="M 83.5,45.5 C 83.5,46.5 83.5,47.5 83.5,48.5C 84.552,48.3505 85.552,48.5172 86.5,49C 86.1667,49.3333 85.8333,49.6667 85.5,50C 91.6068,57.4506 97.7735,64.9506 104,72.5C 105.011,73.3366 106.178,73.67 107.5,73.5C 108.801,78.6373 111.801,82.4707 116.5,85C 116.167,85.3333 115.833,85.6667 115.5,86C 124.156,93.8328 131.156,102.999 136.5,113.5C 136.5,114.167 136.167,114.5 135.5,114.5C 134.325,114.719 133.325,114.386 132.5,113.5C 126.5,105.833 120.5,98.1667 114.5,90.5C 103.189,78.3469 92.3556,65.6802 82,52.5C 81.0494,52.1164 80.2161,51.7831 79.5,51.5C 80.3507,49.1184 81.684,47.1184 83.5,45.5 Z"/></g>
<g><path style="opacity:0.987" fill="#a491ff" d="M 144.5,82.5 C 146.368,83.2632 148.035,84.2632 149.5,85.5C 154.348,89.9306 158.681,94.9306 162.5,100.5C 160.786,101.738 158.786,102.405 156.5,102.5C 157.348,100.688 157.348,99.1882 156.5,98C 155.551,97.3828 154.718,97.5494 154,98.5C 152.383,97.4642 152.216,96.2975 153.5,95C 151.5,93.6667 149.5,92.3333 147.5,91C 147.833,90.6667 148.167,90.3333 148.5,90C 144.417,88.1325 143.083,85.6325 144.5,82.5 Z"/></g>
<g><path style="opacity:0.999" fill="#1384fc" d="M 46.5,82.5 C 49.1461,86.5023 52.4795,90.169 56.5,93.5C 58.0902,95.6797 59.4235,98.013 60.5,100.5C 61.086,100.291 61.586,99.9574 62,99.5C 64,102.5 66,105.5 68,108.5C 76.1462,117.629 84.6462,127.129 93.5,137C 93.1667,137.333 92.8333,137.667 92.5,138C 97.1086,142.794 101.442,146.96 105.5,150.5C 104.833,151.833 104.167,153.167 103.5,154.5C 97.2669,146.418 90.7669,138.418 84,130.5C 75.8887,123.72 69.222,115.72 64,106.5C 62.9887,105.663 61.8221,105.33 60.5,105.5C 59.1681,101.658 56.8348,98.4912 53.5,96C 53.8333,95.6667 54.1667,95.3333 54.5,95C 50.9155,91.4462 47.2488,87.9462 43.5,84.5C 44.2905,83.5987 45.2905,82.9321 46.5,82.5 Z"/></g>
<g><path style="opacity:0.999" fill="#7f8ffe" d="M 116.5,73.5 C 122.57,78.7391 128.236,84.5725 133.5,91C 133.167,91.3333 132.833,91.6667 132.5,92C 137.151,94.9882 140.151,99.1549 141.5,104.5C 137.965,101.812 134.632,98.8119 131.5,95.5C 127.742,88.3831 122.742,82.0498 116.5,76.5C 115.209,75.4728 115.209,74.4728 116.5,73.5 Z"/></g>
<g><path style="opacity:1" fill="#918ffe" d="M 118.5,61.5 C 119.167,61.5 119.5,61.8333 119.5,62.5C 118.475,62.8966 118.308,63.5632 119,64.5C 128.989,76.82 139.322,88.82 150,100.5C 151.009,102.025 151.509,103.692 151.5,105.5C 150.167,105.833 148.833,106.167 147.5,106.5C 147.649,105.448 147.483,104.448 147,103.5C 142.908,99.5816 139.408,95.2483 136.5,90.5C 135.611,87.4555 134.111,84.7888 132,82.5C 130.622,80.7866 128.955,79.4533 127,78.5C 115.352,62.3619 102.518,47.3619 88.5,33.5C 88.3284,32.5084 88.6618,31.8417 89.5,31.5C 90.397,30.4019 91.2303,30.4019 92,31.5C 98.651,40.4806 105.651,49.1473 113,57.5C 114.432,59.4388 116.265,60.7721 118.5,61.5 Z"/></g>
<g><path style="opacity:0.964" fill="#1b7ffd" d="M 41.5,85.5 C 41.3893,86.1174 41.056,86.6174 40.5,87C 60.8273,110.832 81.1606,134.666 101.5,158.5C 100.87,162.048 99.8699,165.381 98.5,168.5C 97.7294,164.386 95.2294,161.052 91,158.5C 90,156.833 89,155.167 88,153.5C 87.6012,153.728 87.4346,154.062 87.5,154.5C 79.1781,135.507 66.1781,120.507 48.5,109.5C 49.2389,109.631 49.9056,109.464 50.5,109C 48.627,107.915 46.9603,106.582 45.5,105C 45.8333,104.667 46.1667,104.333 46.5,104C 41.4051,99.6247 37.4051,94.4581 34.5,88.5C 36.649,87.2638 38.9823,86.2638 41.5,85.5 Z"/></g>
<g><path style="opacity:1" fill="#1682fd" d="M 43.5,84.5 C 47.2488,87.9462 50.9155,91.4462 54.5,95C 54.1667,95.3333 53.8333,95.6667 53.5,96C 56.8348,98.4912 59.1681,101.658 60.5,105.5C 61.8221,105.33 62.9887,105.663 64,106.5C 69.222,115.72 75.8887,123.72 84,130.5C 90.7669,138.418 97.2669,146.418 103.5,154.5C 103.34,156.153 102.674,157.486 101.5,158.5C 81.1606,134.666 60.8273,110.832 40.5,87C 41.056,86.6174 41.3893,86.1174 41.5,85.5C 41.8417,84.6618 42.5084,84.3284 43.5,84.5 Z"/></g>
<g><path style="opacity:0.97" fill="#aa92fe" d="M 149.5,85.5 C 152.744,86.4629 155.744,87.7962 158.5,89.5C 162.501,92.1752 166.168,95.1752 169.5,98.5C 167.401,99.6118 165.067,100.279 162.5,100.5C 158.681,94.9306 154.348,89.9306 149.5,85.5 Z"/></g>
<g><path style="opacity:0.904" fill="#207bfe" d="M 34.5,88.5 C 37.4051,94.4581 41.4051,99.6247 46.5,104C 46.1667,104.333 45.8333,104.667 45.5,105C 46.9603,106.582 48.627,107.915 50.5,109C 49.9056,109.464 49.2389,109.631 48.5,109.5C 33.3436,100.895 17.0102,96.5616 -0.5,96.5C -0.5,95.8333 -0.5,95.1667 -0.5,94.5C 11.5317,94.5503 23.1984,92.5503 34.5,88.5 Z"/></g>
<g><path style="opacity:0.951" fill="#b195fe" d="M 158.5,89.5 C 169.244,92.7906 180.244,94.4572 191.5,94.5C 191.5,95.1667 191.5,95.8333 191.5,96.5C 184.088,96.3954 176.755,97.062 169.5,98.5C 166.168,95.1752 162.501,92.1752 158.5,89.5 Z"/></g>
<g><path style="opacity:1" fill="#288efc" d="M 70.5,63.5 C 85.5193,82.1821 101.019,100.515 117,118.5C 117.483,119.448 117.649,120.448 117.5,121.5C 120.47,121.746 121.803,123.412 121.5,126.5C 120.136,128.191 118.803,129.858 117.5,131.5C 102.502,114.333 87.6688,97 73,79.5C 70.48,75.7757 67.98,72.1091 65.5,68.5C 66.8333,66.5 68.5,64.8333 70.5,63.5 Z"/></g>
<g><path style="opacity:0.908" fill="#207bfe" d="M 98.5,168.5 C 97.1169,176.097 96.4502,183.764 96.5,191.5C 95.8333,191.5 95.1667,191.5 94.5,191.5C 94.6051,178.693 92.2718,166.36 87.5,154.5C 87.4346,154.062 87.6012,153.728 88,153.5C 89,155.167 90,156.833 91,158.5C 95.2294,161.052 97.7294,164.386 98.5,168.5 Z"/></g>
</svg>
