<?xml version="1.0" encoding="UTF-8"?>
<!DOCTYPE svg PUBLIC "-//W3C//DTD SVG 1.1//EN" "http://www.w3.org/Graphics/SVG/1.1/DTD/svg11.dtd">
<svg xmlns="http://www.w3.org/2000/svg" version="1.1" width="204px" height="192px" style="shape-rendering:geometricPrecision; text-rendering:geometricPrecision; image-rendering:optimizeQuality; fill-rule:evenodd; clip-rule:evenodd" xmlns:xlink="http://www.w3.org/1999/xlink">
<g><path style="opacity:1" fill="#020202" d="M -0.5,-0.5 C 67.5,-0.5 135.5,-0.5 203.5,-0.5C 203.5,63.5 203.5,127.5 203.5,191.5C 135.5,191.5 67.5,191.5 -0.5,191.5C -0.5,127.5 -0.5,63.5 -0.5,-0.5 Z"/></g>
<g><path style="opacity:1" fill="#525252" d="M 113.5,10.5 C 114.167,12.1667 114.833,13.8333 115.5,15.5C 114.852,17.0858 114.352,18.7525 114,20.5C 113.502,17.1832 113.335,13.8499 113.5,10.5 Z"/></g>
<g><path style="opacity:1" fill="#e2e2e2" d="M 82.5,12.5 C 85.4475,12.2229 88.2809,12.5562 91,13.5C 92.2594,17.0491 93.0927,20.7158 93.5,24.5C 93.2142,28.1194 91.2142,30.1194 87.5,30.5C 85.7419,29.8721 84.2419,28.8721 83,27.5C 82.3714,23.9484 81.5381,20.4484 80.5,17C 80.5186,15.167 81.1852,13.667 82.5,12.5 Z"/></g>
<g><path style="opacity:1" fill="#e3e3e3" d="M 113.5,10.5 C 113.335,13.8499 113.502,17.1832 114,20.5C 114.352,18.7525 114.852,17.0858 115.5,15.5C 115.5,14.1667 115.5,12.8333 115.5,11.5C 116.833,11.5 118.167,11.5 119.5,11.5C 118.58,17.2611 117.247,22.9278 115.5,28.5C 114.349,29.731 113.183,29.731 112,28.5C 111.463,19.2632 110.63,19.2632 109.5,28.5C 108.167,28.5 106.833,28.5 105.5,28.5C 105.5,22.5 105.5,16.5 105.5,10.5C 106.5,10.5 107.5,10.5 108.5,10.5C 108.337,12.8568 108.503,15.1902 109,17.5C 109.311,15.444 109.811,13.444 110.5,11.5C 111.325,10.6143 112.325,10.281 113.5,10.5 Z"/></g>
<g><path style="opacity:1" fill="#1d1d1d" d="M 85.5,15.5 C 86.4959,15.4142 87.3292,15.7476 88,16.5C 88.3924,19.1879 88.8924,21.8546 89.5,24.5C 89.4435,25.737 88.9435,26.737 88,27.5C 86.0149,23.7945 85.1816,19.7945 85.5,15.5 Z"/></g>
<g><path style="opacity:1" fill="#d8d8d8" d="M 134.5,16.5 C 138.386,16.9109 140.719,18.9109 141.5,22.5C 140.626,25.9196 139.459,29.253 138,32.5C 133.048,36.9094 129.215,36.0761 126.5,30C 127.803,24.5395 130.47,20.0395 134.5,16.5 Z"/></g>
<g><path style="opacity:1" fill="#dfdfdf" d="M 63.5,19.5 C 64.8734,19.3433 66.2068,19.51 67.5,20C 71.7204,23.6047 73.8871,28.1047 74,33.5C 72.3683,37.212 69.535,38.3787 65.5,37C 62.3433,32.5455 60.51,27.7121 60,22.5C 61.1451,21.3636 62.3117,20.3636 63.5,19.5 Z"/></g>
<g><path style="opacity:1" fill="#131313" d="M 135.5,20.5 C 136.497,20.4701 137.164,20.9701 137.5,22C 136.042,25.7524 134.208,29.2524 132,32.5C 132.235,28.2893 133.401,24.2893 135.5,20.5 Z"/></g>
<g><path style="opacity:1" fill="#1c1c1c" d="M 63.5,23.5 C 67.0512,25.5802 69.3846,28.7469 70.5,33C 70.1667,33.5 69.8333,34 69.5,34.5C 66.7094,31.2512 64.7094,27.5845 63.5,23.5 Z"/></g>
<g><path style="opacity:1" fill="#dbdbdb" d="M 48.5,30.5 C 50.6516,31.0768 50.985,32.2435 49.5,34C 52.3159,37.7835 55.4826,41.2835 59,44.5C 59.3087,46.3914 58.4753,47.7248 56.5,48.5C 53.3128,45.1472 50.3128,41.6472 47.5,38C 45.8925,38.0187 44.2259,38.1854 42.5,38.5C 43.3453,34.9854 45.3453,32.3187 48.5,30.5 Z"/></g>
<g><path style="opacity:1" fill="#e4e4e4" d="M 153.5,27.5 C 162.524,32.0559 162.69,36.7225 154,41.5C 152.829,43.8422 151.662,46.1756 150.5,48.5C 149.054,47.8291 148.388,46.6624 148.5,45C 149.156,43.0909 149.656,41.2576 150,39.5C 148.649,41.019 147.149,42.3523 145.5,43.5C 144.28,43.1131 143.613,42.2798 143.5,41C 146.675,36.3331 150.009,31.8331 153.5,27.5 Z"/></g>
<g><path style="opacity:1" fill="#121212" d="M 155.5,32.5 C 158.218,34.0878 158.052,35.4212 155,36.5C 154.5,36.1667 154,35.8333 153.5,35.5C 154.193,34.4822 154.859,33.4822 155.5,32.5 Z"/></g>
<g><path style="opacity:1" fill="#fbfbfb" d="M 102.5,41.5 C 113.518,40.7169 124.185,42.2169 134.5,46C 140.051,48.7167 144.051,52.8834 146.5,58.5C 148.738,67.408 149.071,76.408 147.5,85.5C 142.526,97.2718 133.526,104.105 120.5,106C 114.509,106.499 108.509,106.666 102.5,106.5C 101.513,111.305 101.179,116.305 101.5,121.5C 103.099,121.768 104.432,121.434 105.5,120.5C 109.569,124.563 113.236,128.896 116.5,133.5C 116.782,134.778 117.449,135.778 118.5,136.5C 114.195,139.323 109.862,142.156 105.5,145C 102.389,145.612 99.7226,144.779 97.5,142.5C 92.3595,141.512 87.0262,141.179 81.5,141.5C 81.8128,137.958 81.4794,134.625 80.5,131.5C 79.5707,130.685 78.5707,129.852 77.5,129C 78.4601,127.581 79.2935,126.081 80,124.5C 80.6667,118.833 80.6667,113.167 80,107.5C 74.4071,112.048 68.9071,116.715 63.5,121.5C 57.8232,117.798 53.8232,112.798 51.5,106.5C 51.4672,102.131 51.8005,97.7978 52.5,93.5C 59.1905,85.4304 66.5238,77.7638 74.5,70.5C 76.1477,71.8098 77.8144,73.1431 79.5,74.5C 80.1924,73.9747 80.6924,73.3081 81,72.5C 81.4998,62.5056 81.6665,52.5056 81.5,42.5C 88.6866,42.8245 95.6866,42.4912 102.5,41.5 Z"/></g>
<g><path style="opacity:1" fill="#a9a9a9" d="M 102.5,41.5 C 95.6866,42.4912 88.6866,42.8245 81.5,42.5C 81.6665,52.5056 81.4998,62.5056 81,72.5C 80.6924,73.3081 80.1924,73.9747 79.5,74.5C 77.8144,73.1431 76.1477,71.8098 74.5,70.5C 74.811,69.5222 75.4777,68.8555 76.5,68.5C 77.8139,69.3128 78.9805,70.3128 80,71.5C 80.4998,61.5056 80.6665,51.5056 80.5,41.5C 87.8333,41.5 95.1667,41.5 102.5,41.5 Z"/></g>
<g><path style="opacity:1" fill="#dcdcdc" d="M 169.5,44.5 C 171.252,44.4176 172.252,45.2509 172.5,47C 168.94,49.7048 165.44,52.5382 162,55.5C 162.019,57.1075 162.185,58.7741 162.5,60.5C 161.167,60.5 159.833,60.5 158.5,60.5C 157.64,58.1845 157.14,55.8511 157,53.5C 160.969,50.1107 165.136,47.1107 169.5,44.5 Z"/></g>
<g><path style="opacity:1" fill="#e0e0e0" d="M 34.5,46.5 C 40.5183,48.3962 46.185,51.0629 51.5,54.5C 49.618,56.0432 47.618,56.8765 45.5,57C 45.9504,58.2853 46.6171,59.452 47.5,60.5C 46.6518,62.2828 45.3185,62.7828 43.5,62C 40,58.5 36.5,55 33,51.5C 32.8782,49.7184 33.3782,48.0518 34.5,46.5 Z"/></g>
<g><path style="opacity:1" fill="#484848" d="M 39.5,53.5 C 40.8917,52.478 42.225,52.8113 43.5,54.5C 43.1667,54.8333 42.8333,55.1667 42.5,55.5C 41.4822,54.8075 40.4822,54.1408 39.5,53.5 Z"/></g>
<g><path style="opacity:1" fill="#050505" d="M 120.5,61.5 C 123.056,62.5434 125.223,64.2101 127,66.5C 130.416,78.8839 125.916,86.2172 113.5,88.5C 109.833,88.5 106.167,88.5 102.5,88.5C 102.5,81.5 102.5,74.5 102.5,67.5C 106.371,67.815 110.038,67.4816 113.5,66.5C 114.461,64.7354 114.795,62.7354 114.5,60.5C 116.5,60.8333 118.5,61.1667 120.5,61.5 Z"/></g>
<g><path style="opacity:1" fill="#5c5c5c" d="M 120.5,61.5 C 118.5,61.1667 116.5,60.8333 114.5,60.5C 114.795,62.7354 114.461,64.7354 113.5,66.5C 113.5,64.1667 113.5,61.8333 113.5,59.5C 116.228,59.1706 118.562,59.8372 120.5,61.5 Z"/></g>
<g><path style="opacity:1" fill="#dddddd" d="M 26.5,64.5 C 29.2706,64.4207 31.9373,64.9207 34.5,66C 35.4177,68.133 35.5844,70.2996 35,72.5C 36.7849,73.2401 38.6183,73.9067 40.5,74.5C 41.8899,76.4946 41.3899,77.828 39,78.5C 33.9464,77.316 29.113,75.6493 24.5,73.5C 23.1202,70.0675 23.7869,67.0675 26.5,64.5 Z"/></g>
<g><path style="opacity:1" fill="#e1e1e1" d="M 178.5,61.5 C 179.5,61.5 180.5,61.5 181.5,61.5C 182.221,64.8175 182.388,68.1508 182,71.5C 177.933,73.6936 173.6,75.3603 169,76.5C 165.501,74.5003 163.834,71.5003 164,67.5C 168.954,65.5663 173.787,63.5663 178.5,61.5 Z"/></g>
<g><path style="opacity:1" fill="#1b1b1b" d="M 27.5,68.5 C 28.8333,68.5 30.1667,68.5 31.5,68.5C 31.6495,69.552 31.4828,70.552 31,71.5C 29.2714,71.0257 28.1047,70.0257 27.5,68.5 Z"/></g>
<g><path style="opacity:1" fill="#737373" d="M 102.5,67.5 C 102.5,74.5 102.5,81.5 102.5,88.5C 106.167,88.5 109.833,88.5 113.5,88.5C 109.702,89.4834 105.702,89.8168 101.5,89.5C 101.175,81.9809 101.508,74.6476 102.5,67.5 Z"/></g>
<g><path style="opacity:1" fill="#1a1a1a" d="M 177.5,66.5 C 179.549,66.7058 179.883,67.5391 178.5,69C 165.518,72.4976 165.185,71.6642 177.5,66.5 Z"/></g>
<g><path style="opacity:1" fill="#a0a0a0" d="M 146.5,58.5 C 148.924,62.9097 149.924,67.7431 149.5,73C 149.674,77.4422 149.007,81.6089 147.5,85.5C 149.071,76.408 148.738,67.408 146.5,58.5 Z"/></g>
<g><path style="opacity:1" fill="#878787" d="M 52.5,93.5 C 51.8005,97.7978 51.4672,102.131 51.5,106.5C 50.8389,104.866 50.5056,103.033 50.5,101C 50.2999,98.1345 50.9666,95.6345 52.5,93.5 Z"/></g>
<g><path style="opacity:1" fill="#eaeaea" d="M 154.5,97.5 C 156.789,105.18 154.789,112.013 148.5,118C 143.451,121.877 140.618,120.71 140,114.5C 143.962,110.373 148.129,106.373 152.5,102.5C 153.174,100.805 153.841,99.1379 154.5,97.5 Z"/></g>
<g><path style="opacity:1" fill="#6d6d6d" d="M 102.5,106.5 C 102.5,111.167 102.5,115.833 102.5,120.5C 103.5,120.5 104.5,120.5 105.5,120.5C 104.432,121.434 103.099,121.768 101.5,121.5C 101.179,116.305 101.513,111.305 102.5,106.5 Z"/></g>
<g><path style="opacity:1" fill="#bababa" d="M 9.5,107.5 C 10.3063,108.868 11.3063,110.201 12.5,111.5C 12.1667,111.833 11.8333,112.167 11.5,112.5C 9.46476,111.959 7.46476,111.292 5.5,110.5C 6.9014,109.479 8.23473,108.479 9.5,107.5 Z"/></g>
<g><path style="opacity:1" fill="#b6b6b6" d="M 192.5,116.5 C 194.431,117.259 195.931,118.593 197,120.5C 197.718,119.549 198.551,119.383 199.5,120C 198.91,121.299 197.91,122.132 196.5,122.5C 194.865,121.954 193.199,121.62 191.5,121.5C 191.629,119.784 191.962,118.117 192.5,116.5 Z"/></g>
<g><path style="opacity:1" fill="#ababab" d="M 11.5,119.5 C 16.5867,119.284 17.5867,121.118 14.5,125C 9.28943,125.546 8.28943,123.713 11.5,119.5 Z"/></g>
<g><path style="opacity:1" fill="#afafaf" d="M 187.5,127.5 C 189.867,128.164 191.867,129.497 193.5,131.5C 192.245,134.94 190.245,135.273 187.5,132.5C 186.334,130.833 186.334,129.166 187.5,127.5 Z"/></g>
<g><path style="opacity:1" fill="#939393" d="M 116.5,133.5 C 118.106,134.359 119.773,134.526 121.5,134C 120.627,135.045 119.627,135.878 118.5,136.5C 117.449,135.778 116.782,134.778 116.5,133.5 Z"/></g>
<g><path style="opacity:1" fill="#bbbbbb" d="M 19.5,130.5 C 20.3764,130.369 21.0431,130.702 21.5,131.5C 16.0469,135.404 16.2136,136.07 22,133.5C 22.5,133.833 23,134.167 23.5,134.5C 21.5956,135.409 19.7623,136.409 18,137.5C 16.6988,136.902 15.8655,135.902 15.5,134.5C 16.8665,133.16 18.1999,131.827 19.5,130.5 Z"/></g>
<g><path style="opacity:1" fill="#a8a8a8" d="M 80.5,131.5 C 81.4794,134.625 81.8128,137.958 81.5,141.5C 87.0262,141.179 92.3595,141.512 97.5,142.5C 91.8333,142.5 86.1667,142.5 80.5,142.5C 80.5,138.833 80.5,135.167 80.5,131.5 Z"/></g>
<g><path style="opacity:1" fill="#afafaf" d="M 179.5,138.5 C 184.541,138.353 186.207,140.519 184.5,145C 179.959,144.965 178.292,142.798 179.5,138.5 Z"/></g>
<g><path style="opacity:1" fill="#d2d2d2" d="M 25.5,141.5 C 27.6648,141.116 29.3315,141.783 30.5,143.5C 28.1358,147.421 25.8024,147.754 23.5,144.5C 24.1925,143.482 24.8592,142.482 25.5,141.5 Z"/></g>
<g><path style="opacity:1" fill="#a3a3a3" d="M 171.5,148.5 C 173.903,148.393 175.736,149.393 177,151.5C 176.067,156.272 174.067,156.606 171,152.5C 170.421,151.072 170.588,149.738 171.5,148.5 Z"/></g>
<g><path style="opacity:1" fill="#cccccc" d="M 161.5,156.5 C 163.619,157.738 165.619,159.238 167.5,161C 166.23,161.9 165.23,163.066 164.5,164.5C 162.337,162.353 161.337,159.686 161.5,156.5 Z"/></g>
<g><path style="opacity:1" fill="#b4b4b4" d="M 42.5,156.5 C 45.5341,156.609 46.5341,157.943 45.5,160.5C 44.1156,157.867 42.7822,157.867 41.5,160.5C 42.1667,161.167 42.8333,161.833 43.5,162.5C 41.5054,163.89 40.172,163.39 39.5,161C 40.3146,159.357 41.3146,157.857 42.5,156.5 Z"/></g>
<g><path style="opacity:1" fill="#cbcbcb" d="M 52.5,163.5 C 53.9311,163.881 54.7645,164.881 55,166.5C 55.7431,164.355 56.5765,164.189 57.5,166C 56.4645,167.901 55.2978,169.735 54,171.5C 53.6667,170.167 53.3333,168.833 53,167.5C 52.4646,169.271 51.6313,169.604 50.5,168.5C 51.1744,166.805 51.8411,165.138 52.5,163.5 Z"/></g>
<g><path style="opacity:1" fill="#bdbdbd" d="M 65.5,169.5 C 68.2436,170.072 69.0769,171.738 68,174.5C 66.951,176.107 65.451,176.773 63.5,176.5C 63.1849,173.789 63.8516,171.456 65.5,169.5 Z"/></g>
<g><path style="opacity:1" fill="#b0b0b0" d="M 144.5,167.5 C 145.774,168.189 145.774,169.023 144.5,170C 148.668,171.815 149.001,173.648 145.5,175.5C 142.211,173.057 141.877,170.39 144.5,167.5 Z"/></g>
<g><path style="opacity:1" fill="#c5c5c5" d="M 130.5,172.5 C 131.75,172.577 132.583,173.244 133,174.5C 133.308,173.692 133.808,173.025 134.5,172.5C 135.833,174.833 135.833,177.167 134.5,179.5C 133.808,178.975 133.308,178.308 133,177.5C 132.692,178.308 132.192,178.975 131.5,179.5C 128.296,177.314 127.962,174.981 130.5,172.5 Z"/></g>
<g><path style="opacity:1" fill="#c2c2c2" d="M 76.5,173.5 C 77.4972,173.47 78.1639,173.97 78.5,175C 75.6128,182.13 74.9462,181.63 76.5,173.5 Z"/></g>
<g><path style="opacity:1" fill="#bbbbbb" d="M 86.5,175.5 C 87.8333,175.5 89.1667,175.5 90.5,175.5C 90.0298,177.728 89.0298,179.061 87.5,179.5C 87.6667,180.167 87.8333,180.833 88,181.5C 88.8928,180.289 89.7261,180.289 90.5,181.5C 88.9547,182.452 87.288,182.785 85.5,182.5C 85.448,180.097 85.7814,177.764 86.5,175.5 Z"/></g>
<g><path style="opacity:1" fill="#a6a6a6" d="M 98.5,176.5 C 99.9778,176.238 101.311,176.571 102.5,177.5C 101.975,178.192 101.308,178.692 100.5,179C 103.167,180 103.167,181 100.5,182C 101.308,182.308 101.975,182.808 102.5,183.5C 101.311,184.429 99.9778,184.762 98.5,184.5C 98.5,181.833 98.5,179.167 98.5,176.5 Z"/></g>
<g><path style="opacity:1" fill="#999999" d="M 110.5,182.5 C 112.465,182.948 112.798,183.948 111.5,185.5C 110.614,184.675 110.281,183.675 110.5,182.5 Z"/></g>
</svg>
