<?xml version="1.0" encoding="UTF-8"?>
<!DOCTYPE svg PUBLIC "-//W3C//DTD SVG 1.1//EN" "http://www.w3.org/Graphics/SVG/1.1/DTD/svg11.dtd">
<svg xmlns="http://www.w3.org/2000/svg" version="1.1" width="225px" height="225px" style="shape-rendering:geometricPrecision; text-rendering:geometricPrecision; image-rendering:optimizeQuality; fill-rule:evenodd; clip-rule:evenodd" xmlns:xlink="http://www.w3.org/1999/xlink">
<g><path style="opacity:1" fill="#fefefe" d="M -0.5,-0.5 C 74.5,-0.5 149.5,-0.5 224.5,-0.5C 224.5,74.5 224.5,149.5 224.5,224.5C 149.5,224.5 74.5,224.5 -0.5,224.5C -0.5,149.5 -0.5,74.5 -0.5,-0.5 Z"/></g>
<g><path style="opacity:1" fill="#d90610" d="M 119.5,50.5 C 119.991,54.7773 121.324,58.7773 123.5,62.5C 119.443,63.0685 115.443,64.0685 111.5,65.5C 107.696,60.8639 103.362,56.6972 98.5,53C 99.056,52.6174 99.3893,52.1174 99.5,51.5C 106.109,50.5774 112.776,50.2441 119.5,50.5 Z"/></g>
<g><path style="opacity:1" fill="#d80e16" d="M 127.5,52.5 C 137.522,54.3397 145.855,59.0064 152.5,66.5C 152.145,67.5223 151.478,68.189 150.5,68.5C 142.934,68.2564 135.934,66.0897 129.5,62C 127.793,59.5615 126.459,56.8948 125.5,54C 125.836,52.9701 126.503,52.4701 127.5,52.5 Z"/></g>
<g><path style="opacity:1" fill="#e52022" d="M 93.5,53.5 C 96.5162,54.3431 99.1829,55.8431 101.5,58C 106.377,63.3726 111.044,68.8726 115.5,74.5C 110.324,74.1828 105.324,74.8495 100.5,76.5C 96.5397,73.1989 92.873,69.3656 89.5,65C 87.7795,64.2607 86.1128,63.4274 84.5,62.5C 85.6193,59.9209 84.6193,58.5875 81.5,58.5C 84.9831,55.7633 88.9831,54.0966 93.5,53.5 Z"/></g>
<g><path style="opacity:1" fill="#d10e1f" d="M 123.5,62.5 C 129.704,68.0015 136.704,72.0015 144.5,74.5C 144.167,75.1667 143.833,75.8333 143.5,76.5C 130.771,78.7579 120.104,75.0912 111.5,65.5C 115.443,64.0685 119.443,63.0685 123.5,62.5 Z"/></g>
<g><path style="opacity:1" fill="#f75757" d="M 119.5,50.5 C 122.33,50.9628 124.997,51.6295 127.5,52.5C 126.503,52.4701 125.836,52.9701 125.5,54C 126.459,56.8948 127.793,59.5615 129.5,62C 135.934,66.0897 142.934,68.2564 150.5,68.5C 148.833,70.8333 146.833,72.8333 144.5,74.5C 136.704,72.0015 129.704,68.0015 123.5,62.5C 121.324,58.7773 119.991,54.7773 119.5,50.5 Z"/></g>
<g><path style="opacity:1" fill="#ec1b17" d="M 81.5,58.5 C 84.6193,58.5875 85.6193,59.9209 84.5,62.5C 86.1128,63.4274 87.7795,64.2607 89.5,65C 92.873,69.3656 96.5397,73.1989 100.5,76.5C 93.3343,79.3488 87.3343,83.6821 82.5,89.5C 77.0837,83.0799 71.0837,77.4132 64.5,72.5C 68.9974,66.3288 74.6641,61.6622 81.5,58.5 Z"/></g>
<g><path style="opacity:1" fill="#f55b5a" d="M 99.5,51.5 C 99.3893,52.1174 99.056,52.6174 98.5,53C 103.362,56.6972 107.696,60.8639 111.5,65.5C 120.104,75.0912 130.771,78.7579 143.5,76.5C 140.878,78.7819 138.212,81.1152 135.5,83.5C 129.756,78.5797 123.089,75.5797 115.5,74.5C 111.044,68.8726 106.377,63.3726 101.5,58C 99.1829,55.8431 96.5162,54.3431 93.5,53.5C 95.3024,52.5418 97.3024,51.8751 99.5,51.5 Z"/></g>
<g><path style="opacity:1" fill="#f67d06" d="M 64.5,72.5 C 71.0837,77.4132 77.0837,83.0799 82.5,89.5C 81.4884,90.8717 80.4884,92.205 79.5,93.5C 77.7485,89.69 75.2485,86.3567 72,83.5C 71.3333,84.5 71.3333,85.5 72,86.5C 74.6883,89.7269 76.5217,93.3936 77.5,97.5C 75.7579,104.684 75.0912,112.017 75.5,119.5C 75.1667,122.167 74.8333,122.167 74.5,119.5C 76.3122,108.101 73.9788,97.7679 67.5,88.5C 64.7574,85.8181 62.0907,83.1515 59.5,80.5C 60.3405,77.3243 62.0071,74.6576 64.5,72.5 Z"/></g>
<g><path style="opacity:1" fill="#fcc526" d="M 79.5,93.5 C 79.3404,95.153 78.6737,96.4863 77.5,97.5C 76.5217,93.3936 74.6883,89.7269 72,86.5C 71.3333,85.5 71.3333,84.5 72,83.5C 75.2485,86.3567 77.7485,89.69 79.5,93.5 Z"/></g>
<g><path style="opacity:1" fill="#f7830c" d="M 52.5,95.5 C 55.9045,97.808 57.2379,101.141 56.5,105.5C 56.6617,111.553 54.995,116.886 51.5,121.5C 50.1321,112.784 50.4654,104.118 52.5,95.5 Z"/></g>
<g><path style="opacity:1" fill="#69a0dd" d="M 170.5,103.5 C 170.167,103.5 169.833,103.5 169.5,103.5C 161.231,101.53 152.565,100.864 143.5,101.5C 142.167,101.5 140.833,101.5 139.5,101.5C 130.5,101.5 121.5,101.5 112.5,101.5C 112.5,109.167 112.5,116.833 112.5,124.5C 111.508,116.684 111.174,108.684 111.5,100.5C 131.167,100.5 150.833,100.5 170.5,100.5C 170.5,101.5 170.5,102.5 170.5,103.5 Z"/></g>
<g><path style="opacity:1" fill="#fbcc1f" d="M 56.5,85.5 C 62.6635,97.1167 63.1635,109.117 58,121.5C 56.7485,123.001 55.7485,124.668 55,126.5C 54.3292,127.252 53.4959,127.586 52.5,127.5C 51.5386,125.735 51.2053,123.735 51.5,121.5C 54.995,116.886 56.6617,111.553 56.5,105.5C 57.2379,101.141 55.9045,97.808 52.5,95.5C 52.8723,91.7029 54.2057,88.3695 56.5,85.5 Z"/></g>
<g><path style="opacity:1" fill="#066bd6" d="M 143.5,101.5 C 152.565,100.864 161.231,101.53 169.5,103.5C 161.672,104.503 158.005,109.003 158.5,117C 158.641,120.552 159.141,124.052 160,127.5C 162.452,130.761 164.619,134.094 166.5,137.5C 166.567,138.959 166.234,140.292 165.5,141.5C 162.813,141.659 160.48,140.825 158.5,139C 150.358,131.687 145.525,122.521 144,111.5C 143.502,108.183 143.335,104.85 143.5,101.5 Z"/></g>
<g><path style="opacity:1" fill="#fbc91e" d="M 59.5,80.5 C 62.0907,83.1515 64.7574,85.8181 67.5,88.5C 73.9788,97.7679 76.3122,108.101 74.5,119.5C 70.4167,128.665 66.0834,137.665 61.5,146.5C 60.0937,146.027 59.427,145.027 59.5,143.5C 61.384,139.402 63.5507,135.402 66,131.5C 69.395,123.351 70.0617,115.018 68,106.5C 65.0743,101.553 63.0743,96.2198 62,90.5C 60.6181,87.9568 58.7848,85.9568 56.5,84.5C 57.0256,82.7697 58.0256,81.4363 59.5,80.5 Z"/></g>
<g><path style="opacity:1" fill="#f78404" d="M 56.5,84.5 C 58.7848,85.9568 60.6181,87.9568 62,90.5C 63.0743,96.2198 65.0743,101.553 68,106.5C 70.0617,115.018 69.395,123.351 66,131.5C 63.5507,135.402 61.384,139.402 59.5,143.5C 56.0241,138.764 53.6908,133.431 52.5,127.5C 53.4959,127.586 54.3292,127.252 55,126.5C 55.7485,124.668 56.7485,123.001 58,121.5C 63.1635,109.117 62.6635,97.1167 56.5,85.5C 56.5,85.1667 56.5,84.8333 56.5,84.5 Z"/></g>
<g><path style="opacity:1" fill="#0f6cd6" d="M 170.5,106.5 C 171.163,108.473 171.496,110.639 171.5,113C 170.897,118.847 170.23,124.681 169.5,130.5C 163.316,124.913 161.983,118.247 165.5,110.5C 166.897,108.763 168.564,107.429 170.5,106.5 Z"/></g>
<g><path style="opacity:1" fill="#08a0ef" d="M 169.5,103.5 C 169.833,103.5 170.167,103.5 170.5,103.5C 170.5,104.5 170.5,105.5 170.5,106.5C 168.564,107.429 166.897,108.763 165.5,110.5C 161.983,118.247 163.316,124.913 169.5,130.5C 168.945,133.096 167.945,135.429 166.5,137.5C 164.619,134.094 162.452,130.761 160,127.5C 159.141,124.052 158.641,120.552 158.5,117C 158.005,109.003 161.672,104.503 169.5,103.5 Z"/></g>
<g><path style="opacity:1" fill="#0576ed" d="M 139.5,101.5 C 141.309,109.073 142.642,116.74 143.5,124.5C 133.167,124.5 122.833,124.5 112.5,124.5C 112.5,116.833 112.5,109.167 112.5,101.5C 121.5,101.5 130.5,101.5 139.5,101.5 Z"/></g>
<g><path style="opacity:1" fill="#11a0ef" d="M 139.5,101.5 C 140.833,101.5 142.167,101.5 143.5,101.5C 143.335,104.85 143.502,108.183 144,111.5C 145.525,122.521 150.358,131.687 158.5,139C 160.48,140.825 162.813,141.659 165.5,141.5C 163.988,145.201 161.988,148.534 159.5,151.5C 156.198,147.029 152.698,142.696 149,138.5C 148.275,136.051 147.275,133.717 146,131.5C 145.329,130.748 144.496,130.414 143.5,130.5C 143.92,128.906 144.586,127.406 145.5,126C 145.164,124.97 144.497,124.47 143.5,124.5C 142.642,116.74 141.309,109.073 139.5,101.5 Z"/></g>
<g><path style="opacity:1" fill="#f9ab09" d="M 74.5,119.5 C 74.8333,122.167 75.1667,122.167 75.5,119.5C 77.2671,121.792 78.2671,124.458 78.5,127.5C 77.7904,129.746 77.2904,132.08 77,134.5C 76.0754,135.047 75.2421,135.713 74.5,136.5C 73.1965,140.44 71.3631,144.107 69,147.5C 68.2797,149.112 68.4464,150.612 69.5,152C 68.244,152.417 67.5774,153.25 67.5,154.5C 64.5293,152.557 62.5293,149.891 61.5,146.5C 66.0834,137.665 70.4167,128.665 74.5,119.5 Z"/></g>
<g><path style="opacity:1" fill="#f9ab11" d="M 79.5,129.5 C 81.1921,131.205 82.5254,133.205 83.5,135.5C 80.9865,142.102 78.1532,148.769 75,155.5C 75.8723,146.688 77.3723,138.022 79.5,129.5 Z"/></g>
<g><path style="opacity:1" fill="#0b7aeb" d="M 139.5,137.5 C 142.267,138.638 142.934,140.472 141.5,143C 144.811,148.477 148.811,153.311 153.5,157.5C 153.167,158.5 152.5,159.167 151.5,159.5C 148.575,159.54 145.909,158.707 143.5,157C 138.673,153.668 134.007,150.168 129.5,146.5C 132.874,143.49 136.208,140.49 139.5,137.5 Z"/></g>
<g><path style="opacity:1" fill="#f7a610" d="M 83.5,135.5 C 86.177,138.509 89.177,141.176 92.5,143.5C 92.4349,146.428 91.7682,149.095 90.5,151.5C 90.8919,148.278 90.3919,145.278 89,142.5C 87.1117,147.945 84.445,152.945 81,157.5C 80.5034,159.81 80.3367,162.143 80.5,164.5C 81.5,164.5 82.5,164.5 83.5,164.5C 83.5,165.5 83.5,166.5 83.5,167.5C 80.1897,165.518 77.1897,163.185 74.5,160.5C 76.1478,158.44 77.6478,156.107 79,153.5C 79.6309,150.607 80.4642,147.774 81.5,145C 82.444,143.523 83.7774,142.523 85.5,142C 83.771,140.211 83.1043,138.044 83.5,135.5 Z"/></g>
<g><path style="opacity:1" fill="#0b6fd9" d="M 143.5,130.5 C 144.496,130.414 145.329,130.748 146,131.5C 147.275,133.717 148.275,136.051 149,138.5C 152.698,142.696 156.198,147.029 159.5,151.5C 159.167,152.5 158.5,153.167 157.5,153.5C 153.189,149.623 148.855,145.623 144.5,141.5C 143.451,139.472 142.451,137.472 141.5,135.5C 141.893,133.716 142.559,132.05 143.5,130.5 Z"/></g>
<g><path style="opacity:1" fill="#ee8505" d="M 78.5,127.5 C 79.3382,127.842 79.6716,128.508 79.5,129.5C 77.3723,138.022 75.8723,146.688 75,155.5C 78.1532,148.769 80.9865,142.102 83.5,135.5C 83.1043,138.044 83.771,140.211 85.5,142C 83.7774,142.523 82.444,143.523 81.5,145C 80.4642,147.774 79.6309,150.607 79,153.5C 77.6478,156.107 76.1478,158.44 74.5,160.5C 71.5726,159.243 69.2393,157.243 67.5,154.5C 67.5774,153.25 68.244,152.417 69.5,152C 68.4464,150.612 68.2797,149.112 69,147.5C 71.3631,144.107 73.1965,140.44 74.5,136.5C 75.2421,135.713 76.0754,135.047 77,134.5C 77.2904,132.08 77.7904,129.746 78.5,127.5 Z"/></g>
<g><path style="opacity:1" fill="#08a0ef" d="M 141.5,135.5 C 142.451,137.472 143.451,139.472 144.5,141.5C 148.855,145.623 153.189,149.623 157.5,153.5C 156.5,155.167 155.167,156.5 153.5,157.5C 148.811,153.311 144.811,148.477 141.5,143C 142.934,140.472 142.267,138.638 139.5,137.5C 139.833,136.5 140.5,135.833 141.5,135.5 Z"/></g>
<g><path style="opacity:1" fill="#ed7f05" d="M 90.5,151.5 C 89.5,154.833 88.5,158.167 87.5,161.5C 86.5418,163.302 85.8751,165.302 85.5,167.5C 84.8333,167.5 84.1667,167.5 83.5,167.5C 83.5,166.5 83.5,165.5 83.5,164.5C 82.5,164.5 81.5,164.5 80.5,164.5C 80.3367,162.143 80.5034,159.81 81,157.5C 84.445,152.945 87.1117,147.945 89,142.5C 90.3919,145.278 90.8919,148.278 90.5,151.5 Z"/></g>
<g><path style="opacity:1" fill="#0a983e" d="M 92.5,143.5 C 103.964,150.523 115.797,151.189 128,145.5C 128.383,146.056 128.883,146.389 129.5,146.5C 134.007,150.168 138.673,153.668 143.5,157C 145.909,158.707 148.575,159.54 151.5,159.5C 140.295,169.652 126.962,174.319 111.5,173.5C 110.969,171.376 109.635,169.876 107.5,169C 100.852,165.738 94.1857,163.238 87.5,161.5C 88.5,158.167 89.5,154.833 90.5,151.5C 91.7682,149.095 92.4349,146.428 92.5,143.5 Z"/></g>
<g><path style="opacity:1" fill="#118a3b" d="M 87.5,161.5 C 94.1857,163.238 100.852,165.738 107.5,169C 109.635,169.876 110.969,171.376 111.5,173.5C 102.098,174.156 93.4315,172.156 85.5,167.5C 85.8751,165.302 86.5418,163.302 87.5,161.5 Z"/></g>
</svg>
