<svg xmlns="http://www.w3.org/2000/svg" width="82.667" height="84" preserveAspectRatio="xMidYMid meet" version="1.0" viewBox="0 0 62 63"><g fill="#000" stroke="none"><path d="M264 548 c-53 -107 -72 -128 -168 -183 -47 -27 -86 -52 -86 -55 0 -4 30 -19 68 -34 102 -42 127 -66 180 -172 25 -52 49 -94 52 -94 3 0 20 37 39 81 44 105 77 138 179 179 45 19 82 36 82 39 0 4 -40 27 -88 53 -106 57 -121 71 -172 176 -22 45 -42 82 -45 82 -2 0 -21 -33 -41 -72z m76 -30 c42 -88 64 -111 154 -162 l80 -45 -48 -21 c-26 -11 -51 -20 -55 -20 -4 0 -27 -17 -51 -37 -30 -26 -54 -61 -78 -113 l-35 -75 -34 73 c-43 89 -79 127 -160 163 -35 15 -63 30 -63 33 0 2 28 20 63 39 78 44 116 85 156 165 17 34 34 62 36 62 3 0 19 -28 35 -62z" transform="translate(0.000000,63.000000) scale(0.100000,-0.100000)"/></g></svg>